<svg width="440" height="275" viewBox="0 0 440 275" fill="none" xmlns="http://www.w3.org/2000/svg">
<rect width="440" height="274.872" fill="#C4C4C4"/>
<path d="M174.604 106.76C174.604 108.889 173.969 110.461 172.699 111.477C171.439 112.492 169.535 113 166.986 113H160.717V91.584H173.344V93.7959H163.207V100.725H166.532C168.417 100.725 169.95 100.944 171.132 101.384C172.313 101.813 173.188 102.453 173.754 103.303C174.32 104.152 174.604 105.305 174.604 106.76ZM163.207 110.847H166.708C168.563 110.847 169.911 110.529 170.751 109.895C171.601 109.26 172.025 108.215 172.025 106.76C172.025 105.373 171.596 104.387 170.736 103.801C169.877 103.215 168.378 102.922 166.239 102.922H163.207V110.847ZM192.577 113L189.911 106.188H181.327L178.69 113H176.171L184.638 91.4961H186.732L195.155 113H192.577ZM189.135 103.947L186.645 97.3115C186.322 96.4717 185.99 95.4414 185.648 94.2207C185.434 95.1582 185.126 96.1885 184.726 97.3115L182.206 103.947H189.135ZM214.359 113H211.869V102.922H200.59V113H198.1V91.584H200.59V100.695H211.869V91.584H214.359V113ZM236.508 113H234.018V102.922H222.738V113H220.248V91.584H222.738V100.695H234.018V91.584H236.508V113ZM254.335 113H242.396V91.584H254.335V93.7959H244.887V100.695H253.764V102.893H244.887V110.773H254.335V113ZM272.675 97.8242C272.675 99.9922 271.933 101.662 270.448 102.834C268.974 103.996 266.859 104.577 264.105 104.577H261.586V113H259.096V91.584H264.647C269.999 91.584 272.675 93.6641 272.675 97.8242ZM261.586 102.438H263.827C266.034 102.438 267.631 102.082 268.617 101.369C269.604 100.656 270.097 99.5137 270.097 97.9414C270.097 96.5254 269.633 95.4707 268.705 94.7773C267.777 94.084 266.332 93.7373 264.369 93.7373H261.586V102.438ZM73.8516 150H71.3613V130.796H60.3604V150H57.8701V128.584H73.8516V150ZM93.334 134.824C93.334 136.992 92.5918 138.662 91.1074 139.834C89.6328 140.996 87.5186 141.577 84.7646 141.577H82.2451V150H79.7549V128.584H85.3066C90.6582 128.584 93.334 130.664 93.334 134.824ZM82.2451 139.438H84.4863C86.6934 139.438 88.29 139.082 89.2764 138.369C90.2627 137.656 90.7559 136.514 90.7559 134.941C90.7559 133.525 90.292 132.471 89.3643 131.777C88.4365 131.084 86.9912 130.737 85.0283 130.737H82.2451V139.438ZM116.42 139.263C116.42 142.69 115.551 145.386 113.812 147.349C112.084 149.312 109.677 150.293 106.591 150.293C103.437 150.293 101 149.331 99.2812 147.407C97.5723 145.474 96.7178 142.749 96.7178 139.233C96.7178 135.747 97.5771 133.047 99.2959 131.133C101.015 129.209 103.456 128.247 106.62 128.247C109.696 128.247 112.099 129.224 113.827 131.177C115.556 133.13 116.42 135.825 116.42 139.263ZM99.3545 139.263C99.3545 142.163 99.9697 144.365 101.2 145.869C102.44 147.363 104.237 148.11 106.591 148.11C108.964 148.11 110.756 147.363 111.967 145.869C113.178 144.375 113.783 142.173 113.783 139.263C113.783 136.382 113.178 134.199 111.967 132.715C110.766 131.221 108.983 130.474 106.62 130.474C104.247 130.474 102.44 131.226 101.2 132.729C99.9697 134.224 99.3545 136.401 99.3545 139.263ZM137.191 150H134.701V130.796H123.7V150H121.21V128.584H137.191V150ZM161.684 139.263C161.684 142.69 160.814 145.386 159.076 147.349C157.348 149.312 154.94 150.293 151.854 150.293C148.7 150.293 146.264 149.331 144.545 147.407C142.836 145.474 141.981 142.749 141.981 139.233C141.981 135.747 142.841 133.047 144.56 131.133C146.278 129.209 148.72 128.247 151.884 128.247C154.96 128.247 157.362 129.224 159.091 131.177C160.819 133.13 161.684 135.825 161.684 139.263ZM144.618 139.263C144.618 142.163 145.233 144.365 146.464 145.869C147.704 147.363 149.501 148.11 151.854 148.11C154.228 148.11 156.02 147.363 157.23 145.869C158.441 144.375 159.047 142.173 159.047 139.263C159.047 136.382 158.441 134.199 157.23 132.715C156.029 131.221 154.247 130.474 151.884 130.474C149.511 130.474 147.704 131.226 146.464 132.729C145.233 134.224 144.618 136.401 144.618 139.263ZM180.053 134.824C180.053 136.992 179.311 138.662 177.826 139.834C176.352 140.996 174.237 141.577 171.483 141.577H168.964V150H166.474V128.584H172.025C177.377 128.584 180.053 130.664 180.053 134.824ZM168.964 139.438H171.205C173.412 139.438 175.009 139.082 175.995 138.369C176.981 137.656 177.475 136.514 177.475 134.941C177.475 133.525 177.011 132.471 176.083 131.777C175.155 131.084 173.71 130.737 171.747 130.737H168.964V139.438ZM200.531 147.744H203.051V155.581H200.692V150H184.55V128.584H187.04V147.744H198.041V128.584H200.531V147.744ZM206.698 128.584H209.027V140.493C209.027 142.69 208.959 144.678 208.822 146.455H208.939L220.951 128.584H223.676V150H221.332V138.208C221.332 136.245 221.415 134.185 221.581 132.026H221.449L209.423 150H206.698V128.584ZM248.139 139.263C248.139 142.69 247.27 145.386 245.531 147.349C243.803 149.312 241.396 150.293 238.31 150.293C235.155 150.293 232.719 149.331 231 147.407C229.291 145.474 228.437 142.749 228.437 139.233C228.437 135.747 229.296 133.047 231.015 131.133C232.733 129.209 235.175 128.247 238.339 128.247C241.415 128.247 243.817 129.224 245.546 131.177C247.274 133.13 248.139 135.825 248.139 139.263ZM231.073 139.263C231.073 142.163 231.688 144.365 232.919 145.869C234.159 147.363 235.956 148.11 238.31 148.11C240.683 148.11 242.475 147.363 243.686 145.869C244.896 144.375 245.502 142.173 245.502 139.263C245.502 136.382 244.896 134.199 243.686 132.715C242.484 131.221 240.702 130.474 238.339 130.474C235.966 130.474 234.159 131.226 232.919 132.729C231.688 134.224 231.073 136.401 231.073 139.263ZM269.188 150H266.698V139.922H255.419V150H252.929V128.584H255.419V137.695H266.698V128.584H269.188V150ZM288.539 150L285.873 143.188H277.289L274.652 150H272.133L280.6 128.496H282.694L291.117 150H288.539ZM285.097 140.947L282.606 134.312C282.284 133.472 281.952 132.441 281.61 131.221C281.396 132.158 281.088 133.188 280.688 134.312L278.168 140.947H285.097ZM309.296 150H306.806V130.796H299.848L299.394 134.312C298.798 138.989 298.271 142.412 297.812 144.58C297.362 146.738 296.767 148.242 296.024 149.092C295.282 149.941 294.296 150.356 293.065 150.337C292.343 150.337 291.693 150.215 291.117 149.971V147.876C291.645 148.13 292.196 148.257 292.772 148.257C293.29 148.257 293.739 148.047 294.12 147.627C294.511 147.197 294.853 146.46 295.146 145.415C295.448 144.36 295.824 142.368 296.273 139.438C296.732 136.499 297.235 132.881 297.782 128.584H309.296V150ZM329.965 143.76C329.965 145.742 329.301 147.28 327.973 148.374C326.654 149.458 324.77 150 322.318 150H315.185V128.584H317.675V137.725H321.938C324.545 137.725 326.532 138.242 327.899 139.277C329.276 140.303 329.965 141.797 329.965 143.76ZM317.675 147.847H322.055C325.609 147.847 327.387 146.484 327.387 143.76C327.387 142.441 326.928 141.475 326.01 140.859C325.102 140.234 323.642 139.922 321.63 139.922H317.675V147.847ZM350.751 150H348.261V139.922H336.981V150H334.491V128.584H336.981V137.695H348.261V128.584H350.751V150ZM375.229 139.263C375.229 142.69 374.359 145.386 372.621 147.349C370.893 149.312 368.485 150.293 365.399 150.293C362.245 150.293 359.809 149.331 358.09 147.407C356.381 145.474 355.526 142.749 355.526 139.233C355.526 135.747 356.386 133.047 358.104 131.133C359.823 129.209 362.265 128.247 365.429 128.247C368.505 128.247 370.907 129.224 372.636 131.177C374.364 133.13 375.229 135.825 375.229 139.263ZM358.163 139.263C358.163 142.163 358.778 144.365 360.009 145.869C361.249 147.363 363.046 148.11 365.399 148.11C367.772 148.11 369.564 147.363 370.775 145.869C371.986 144.375 372.592 142.173 372.592 139.263C372.592 136.382 371.986 134.199 370.775 132.715C369.574 131.221 367.792 130.474 365.429 130.474C363.056 130.474 361.249 131.226 360.009 132.729C358.778 134.224 358.163 136.401 358.163 139.263ZM158.344 177.845C158.344 173.636 159.159 170.491 160.79 168.411C162.431 166.321 164.853 165.276 168.056 165.276C169.159 165.276 170.028 165.369 170.663 165.555V167.649C169.911 167.405 169.052 167.283 168.085 167.283C165.79 167.283 164.037 168.001 162.826 169.437C161.615 170.862 160.951 173.108 160.834 176.175H161.01C162.084 174.495 163.783 173.655 166.107 173.655C168.031 173.655 169.545 174.236 170.648 175.398C171.762 176.561 172.318 178.138 172.318 180.13C172.318 182.356 171.708 184.109 170.487 185.389C169.276 186.658 167.636 187.293 165.565 187.293C163.349 187.293 161.591 186.463 160.292 184.803C158.993 183.133 158.344 180.813 158.344 177.845ZM165.536 185.228C166.923 185.228 167.997 184.793 168.759 183.924C169.53 183.045 169.916 181.78 169.916 180.13C169.916 178.714 169.56 177.601 168.847 176.79C168.134 175.979 167.069 175.574 165.653 175.574C164.774 175.574 163.969 175.755 163.236 176.116C162.504 176.478 161.918 176.976 161.479 177.61C161.049 178.245 160.834 178.904 160.834 179.588C160.834 180.594 161.029 181.531 161.42 182.4C161.811 183.27 162.362 183.958 163.075 184.466C163.798 184.974 164.618 185.228 165.536 185.228ZM190.351 182.078H187.172V187H184.843V182.078H174.428V179.954L184.594 165.467H187.172V179.866H190.351V182.078ZM184.843 179.866V172.747C184.843 171.351 184.892 169.773 184.989 168.016H184.872C184.403 168.953 183.964 169.729 183.554 170.345L176.859 179.866H184.843ZM206.625 176.263C206.625 179.964 206.039 182.728 204.867 184.554C203.705 186.38 201.923 187.293 199.521 187.293C197.216 187.293 195.463 186.36 194.262 184.495C193.061 182.62 192.46 179.876 192.46 176.263C192.46 172.532 193.041 169.764 194.203 167.957C195.365 166.15 197.138 165.247 199.521 165.247C201.845 165.247 203.607 166.189 204.809 168.074C206.02 169.959 206.625 172.688 206.625 176.263ZM194.921 176.263C194.921 179.378 195.287 181.648 196.02 183.074C196.752 184.49 197.919 185.198 199.521 185.198C201.142 185.198 202.313 184.48 203.036 183.045C203.769 181.6 204.135 179.339 204.135 176.263C204.135 173.187 203.769 170.936 203.036 169.51C202.313 168.074 201.142 167.356 199.521 167.356C197.919 167.356 196.752 168.064 196.02 169.48C195.287 170.887 194.921 173.147 194.921 176.263ZM214.579 178.782L208.998 170.945H211.767L216 177.098L220.219 170.945H222.958L217.377 178.782L223.251 187H220.497L216 180.496L211.459 187H208.705L214.579 178.782ZM240.419 182.078H237.24V187H234.911V182.078H224.496V179.954L234.662 165.467H237.24V179.866H240.419V182.078ZM234.911 179.866V172.747C234.911 171.351 234.96 169.773 235.058 168.016H234.94C234.472 168.953 234.032 169.729 233.622 170.345L226.928 179.866H234.911ZM256.693 176.263C256.693 179.964 256.107 182.728 254.936 184.554C253.773 186.38 251.991 187.293 249.589 187.293C247.284 187.293 245.531 186.36 244.33 184.495C243.129 182.62 242.528 179.876 242.528 176.263C242.528 172.532 243.109 169.764 244.271 167.957C245.434 166.15 247.206 165.247 249.589 165.247C251.913 165.247 253.676 166.189 254.877 168.074C256.088 169.959 256.693 172.688 256.693 176.263ZM244.989 176.263C244.989 179.378 245.355 181.648 246.088 183.074C246.82 184.49 247.987 185.198 249.589 185.198C251.21 185.198 252.382 184.48 253.104 183.045C253.837 181.6 254.203 179.339 254.203 176.263C254.203 173.187 253.837 170.936 253.104 169.51C252.382 168.074 251.21 167.356 249.589 167.356C247.987 167.356 246.82 168.064 246.088 169.48C245.355 170.887 244.989 173.147 244.989 176.263ZM273.861 176.263C273.861 179.964 273.275 182.728 272.104 184.554C270.941 186.38 269.159 187.293 266.757 187.293C264.452 187.293 262.699 186.36 261.498 184.495C260.297 182.62 259.696 179.876 259.696 176.263C259.696 172.532 260.277 169.764 261.439 167.957C262.602 166.15 264.374 165.247 266.757 165.247C269.081 165.247 270.844 166.189 272.045 168.074C273.256 169.959 273.861 172.688 273.861 176.263ZM262.157 176.263C262.157 179.378 262.523 181.648 263.256 183.074C263.988 184.49 265.155 185.198 266.757 185.198C268.378 185.198 269.55 184.48 270.272 183.045C271.005 181.6 271.371 179.339 271.371 176.263C271.371 173.187 271.005 170.936 270.272 169.51C269.55 168.074 268.378 167.356 266.757 167.356C265.155 167.356 263.988 168.064 263.256 169.48C262.523 170.887 262.157 173.147 262.157 176.263Z" fill="black"/>
</svg>
