<svg width="24" height="25" viewBox="0 0 24 25" fill="none" xmlns="http://www.w3.org/2000/svg">
<path d="M23.4038 9.2002C23.2926 9.1002 23.1815 9.1002 23.0703 9.1002H20.2898V1.1002C20.2898 0.900196 20.0673 0.700195 19.8449 0.700195H11.5035C11.2811 0.700195 11.0586 0.900196 11.0586 1.1002V4.8002H8.83422C8.61178 4.8002 8.38931 5.0002 8.38931 5.2002C8.38931 5.4002 8.61178 5.6002 8.83422 5.6002H11.3923H12.6157V9.1002H9.0566H6.60984V5.6002H7.27713C7.49956 5.6002 7.72203 5.4002 7.72203 5.2002C7.72203 5.0002 7.49956 4.8002 7.27713 4.8002H6.27613C6.16491 4.8002 6.16494 4.8002 6.16494 4.8002C6.05372 4.9002 5.94256 5.0002 5.94256 5.1002V9.0002H4.60785L3.27328 4.1002H0.492814C0.270377 4.1002 0.0479126 4.3002 0.0479126 4.5002C0.0479126 4.7002 0.270377 4.9002 0.492814 4.9002H2.93957L6.83222 19.4002C6.27613 19.7002 5.83137 20.3002 5.83137 20.9002C5.83137 21.8002 6.60987 22.6002 7.61084 22.7002C7.3884 22.9002 7.38832 23.2002 7.38832 23.5002C7.38832 24.3002 8.16685 25.0002 9.0566 25.0002C9.94635 25.0002 10.7249 24.3002 10.7249 23.5002C10.7249 23.2002 10.6137 22.9002 10.5025 22.7002H17.5093C17.2869 22.9002 17.2868 23.2002 17.2868 23.5002C17.2868 24.3002 18.0653 25.0002 18.9551 25.0002C19.8448 25.0002 20.6234 24.3002 20.6234 23.5002C20.6234 23.2002 20.5122 22.9002 20.401 22.7002H21.8467C22.0692 22.7002 22.2916 22.5002 22.2916 22.3002C22.2916 22.1002 22.0692 21.9002 21.8467 21.9002H7.72203C7.05472 21.9002 6.49865 21.4002 6.49865 20.8002C6.49865 20.2002 7.05472 19.7002 7.72203 19.7002H7.83322L21.8467 19.3002C22.0692 19.3002 22.1805 19.2002 22.1805 19.0002L22.4028 17.6002C22.4028 17.5002 22.4029 17.4002 22.2916 17.3002C22.1804 17.2002 22.1805 17.2002 22.0693 17.2002C22.0693 17.2002 22.0693 17.2002 21.9581 17.2002C21.7356 17.2002 21.6244 17.3002 21.6244 17.5002L21.402 18.6002L18.7327 18.7002L19.0663 14.6002H22.0693L21.6244 16.0002C21.6244 16.1002 21.6243 16.2002 21.7356 16.3002C21.8468 16.4002 21.8469 16.4002 21.9581 16.4002C21.9581 16.4002 21.958 16.4002 22.0693 16.4002C22.2917 16.4002 22.4028 16.3002 22.4028 16.1002L23.515 9.5002C23.515 9.4002 23.4038 9.3002 23.4038 9.2002ZM18.6215 22.4002C19.1776 22.4002 19.5112 22.8002 19.5112 23.2002C19.5112 23.7002 19.0664 24.0002 18.6215 24.0002C18.0654 24.0002 17.7317 23.6002 17.7317 23.2002C17.7317 22.8002 18.1766 22.4002 18.6215 22.4002ZM8.72302 22.4002C9.27912 22.4002 9.61269 22.8002 9.61269 23.2002C9.61269 23.7002 9.1679 24.0002 8.72302 24.0002C8.16693 24.0002 7.83322 23.6002 7.83322 23.2002C7.83322 22.8002 8.27815 22.4002 8.72302 22.4002ZM4.83037 9.80019H8.94541L9.39031 13.8002H5.94256L4.83037 9.80019ZM7.27713 18.9002L6.05375 14.5002H9.39031L9.83521 18.9002H7.27713ZM9.72402 9.80019H13.8391V13.8002H10.1688L9.72402 9.80019ZM13.8391 18.7002L10.7249 18.8002L10.2801 14.5002H13.9502V18.7002H13.8391ZM17.7317 18.6002L14.6175 18.7002V14.5002H18.0654L17.7317 18.6002ZM18.1766 13.7002H14.6175V9.7002H18.5102L18.1766 13.7002ZM14.1728 9.1002H13.5053V5.2002C13.5053 5.2002 13.5053 5.2002 13.5053 5.1002C13.5053 5.0002 13.3942 4.9002 13.283 4.8002C13.1717 4.8002 13.1718 4.8002 13.0606 4.8002H11.8371V1.5002H19.4V9.1002H14.1728ZM21.9581 13.7002H18.9551L19.2888 9.7002H22.6254L21.9581 13.7002Z" fill="white"/>
</svg>
