<svg width="12" height="16" viewBox="0 0 12 16" fill="none" xmlns="http://www.w3.org/2000/svg">
<path fill-rule="evenodd" clip-rule="evenodd" d="M1.71429 7.13543V5.33074C1.71429 4.13416 2.16582 2.98659 2.96954 2.14047C3.77327 1.29436 4.86336 0.819023 6 0.819023C7.13664 0.819023 8.22673 1.29436 9.03046 2.14047C9.83418 2.98659 10.2857 4.13416 10.2857 5.33074V7.13543C10.7404 7.13543 11.1764 7.32556 11.4979 7.66401C11.8194 8.00245 12 8.46148 12 8.94012V13.4518C12 13.9305 11.8194 14.3895 11.4979 14.7279C11.1764 15.0664 10.7404 15.2565 10.2857 15.2565H1.71429C1.25963 15.2565 0.823593 15.0664 0.502103 14.7279C0.180612 14.3895 0 13.9305 0 13.4518V8.94012C0 8.46148 0.180612 8.00245 0.502103 7.66401C0.823593 7.32556 1.25963 7.13543 1.71429 7.13543ZM8.57143 5.33074V7.13543H3.42857V5.33074C3.42857 4.61279 3.69949 3.92425 4.18173 3.41658C4.66396 2.90891 5.31801 2.62371 6 2.62371C6.68199 2.62371 7.33604 2.90891 7.81827 3.41658C8.30051 3.92425 8.57143 4.61279 8.57143 5.33074Z" fill="#F69C00"/>
</svg>
