<svg width="12" height="16" viewBox="0 0 12 16" fill="none" xmlns="http://www.w3.org/2000/svg">
<path d="M6 0.819031C4.86336 0.819031 3.77327 1.29437 2.96954 2.14048C2.16582 2.98659 1.71429 4.13417 1.71429 5.33075V7.13544C1.25963 7.13544 0.823593 7.32557 0.502103 7.66402C0.180612 8.00246 0 8.46149 0 8.94012V13.4518C0 13.9305 0.180612 14.3895 0.502103 14.7279C0.823593 15.0664 1.25963 15.2565 1.71429 15.2565H10.2857C10.7404 15.2565 11.1764 15.0664 11.4979 14.7279C11.8194 14.3895 12 13.9305 12 13.4518V8.94012C12 8.46149 11.8194 8.00246 11.4979 7.66402C11.1764 7.32557 10.7404 7.13544 10.2857 7.13544H3.42857V5.33075C3.42836 4.67171 3.65653 4.03523 4.07028 3.54066C4.48404 3.0461 5.05497 2.72741 5.676 2.64437C6.29704 2.56134 6.92551 2.71965 7.44358 3.08963C7.96164 3.4596 8.33371 4.01583 8.49 4.65399C8.54683 4.88577 8.6888 5.08429 8.88467 5.20587C8.98165 5.26608 9.08895 5.30558 9.20044 5.32213C9.31192 5.33868 9.42541 5.33195 9.53443 5.30233C9.64344 5.2727 9.74585 5.22076 9.8358 5.14947C9.92575 5.07819 10.0015 4.98895 10.0587 4.88685C10.1159 4.78475 10.1534 4.67179 10.1691 4.55443C10.1848 4.43706 10.1784 4.31758 10.1503 4.20282C9.91246 3.23439 9.37579 2.37656 8.62457 1.76409C7.87336 1.15161 6.95016 0.819186 6 0.819031Z" fill="#3F9726"/>
</svg>
