<svg width="12" height="16" viewBox="0 0 12 16" fill="none" xmlns="http://www.w3.org/2000/svg">
<path fill-rule="evenodd" clip-rule="evenodd" d="M1.71429 7.13544V5.33075C1.71429 4.13417 2.16582 2.98659 2.96954 2.14048C3.77327 1.29437 4.86336 0.819031 6 0.819031C7.13664 0.819031 8.22673 1.29437 9.03046 2.14048C9.83418 2.98659 10.2857 4.13417 10.2857 5.33075V7.13544C10.7404 7.13544 11.1764 7.32557 11.4979 7.66402C11.8194 8.00246 12 8.46149 12 8.94012V13.4518C12 13.9305 11.8194 14.3895 11.4979 14.7279C11.1764 15.0664 10.7404 15.2565 10.2857 15.2565H1.71429C1.25963 15.2565 0.823593 15.0664 0.502103 14.7279C0.180612 14.3895 0 13.9305 0 13.4518V8.94012C0 8.46149 0.180612 8.00246 0.502103 7.66402C0.823593 7.32557 1.25963 7.13544 1.71429 7.13544ZM8.57143 5.33075V7.13544H3.42857V5.33075C3.42857 4.6128 3.69949 3.92426 4.18173 3.41659C4.66396 2.90892 5.31801 2.62372 6 2.62372C6.68199 2.62372 7.33604 2.90892 7.81827 3.41659C8.30051 3.92426 8.57143 4.6128 8.57143 5.33075Z" fill="#B3BAC2"/>
</svg>
