<svg width="34" height="34" viewBox="0 0 34 34" fill="none" xmlns="http://www.w3.org/2000/svg">
<path d="M29.75 34H4.25C1.9125 34 0 32.0875 0 29.75V4.25C0 1.9125 1.9125 0 4.25 0H29.75C32.0875 0 34 1.9125 34 4.25V29.75C34 32.0875 32.0875 34 29.75 34Z" fill="#D4D7DB"/>
<g clip-path="url(#clip0)">
<path d="M24.8359 16.3359H17.6641V9.16406C17.6641 8.7973 17.3668 8.5 17 8.5C16.6332 8.5 16.3359 8.7973 16.3359 9.16406V16.3359H9.16406C8.7973 16.3359 8.5 16.6332 8.5 17C8.5 17.3668 8.7973 17.6641 9.16406 17.6641H16.3359V24.8359C16.3359 25.2027 16.6332 25.5 17 25.5C17.3668 25.5 17.6641 25.2027 17.6641 24.8359V17.6641H24.8359C25.2027 17.6641 25.5 17.3668 25.5 17C25.5 16.6332 25.2027 16.3359 24.8359 16.3359Z" fill="#34495E"/>
</g>
<defs>
<clipPath id="clip0">
<rect width="17" height="17" fill="white" transform="translate(8.5 8.5)"/>
</clipPath>
</defs>
</svg>
