<svg width="26" height="26" viewBox="0 0 26 26" fill="none" xmlns="http://www.w3.org/2000/svg">
<path d="M12.9996 17.7019C12.2727 17.7019 11.6634 18.3112 11.6634 19.0381C11.6634 19.765 12.2727 20.3743 12.9996 20.3743C13.6998 20.3743 14.3358 19.765 14.3037 19.0701C14.3358 18.3059 13.7318 17.7019 12.9996 17.7019Z" fill="#B3B3B3"/>
<path d="M25.3673 22.4376C26.2064 20.9892 26.2118 19.2628 25.378 17.8198L17.0082 3.32494C16.1798 1.86584 14.6833 1 13.005 1C11.3268 1 9.83026 1.87119 9.00184 3.3196L0.621347 17.8305C-0.212426 19.2896 -0.207082 21.0266 0.637381 22.475C1.47115 23.9074 2.96233 24.7679 4.62987 24.7679H21.3481C23.021 24.7679 24.5228 23.8967 25.3673 22.4376ZM23.5501 21.39C23.0851 22.1917 22.262 22.6674 21.3427 22.6674H4.62453C3.71593 22.6674 2.89819 22.2024 2.44389 21.4168C1.98425 20.6204 1.9789 19.669 2.43854 18.8673L10.819 4.36182C11.2733 3.56546 12.0857 3.09512 13.005 3.09512C13.919 3.09512 14.7367 3.5708 15.191 4.36716L23.5661 18.8727C24.0151 19.653 24.0098 20.5937 23.5501 21.39Z" fill="#B3B3B3"/>
<path d="M12.6683 8.3219C12.0323 8.50362 11.6368 9.08085 11.6368 9.78101C11.6688 10.2032 11.6956 10.6308 11.7276 11.053C11.8185 12.6618 11.9094 14.2385 12.0002 15.8472C12.0323 16.3924 12.4545 16.7879 12.9997 16.7879C13.5448 16.7879 13.9724 16.3657 13.9991 15.8152C13.9991 15.4838 13.9991 15.1792 14.0312 14.8424C14.09 13.8109 14.1541 12.7794 14.2129 11.7479C14.245 11.0798 14.3038 10.4117 14.3359 9.74359C14.3359 9.50308 14.3038 9.28929 14.2129 9.0755C13.9403 8.4769 13.3043 8.17225 12.6683 8.3219Z" fill="#B3B3B3"/>
</svg>
