<svg width="23" height="19" viewBox="0 0 23 19" fill="none" xmlns="http://www.w3.org/2000/svg">
<path d="M3.75 0.5H0.75C0.336 0.5 0 0.836 0 1.25V4.25C0 4.664 0.336 5 0.75 5C1.164 5 1.5 4.664 1.5 4.25V2H3.75C4.164 2 4.5 1.664 4.5 1.25C4.5 0.836 4.164 0.5 3.75 0.5Z" fill="#34495E"/>
<path d="M21.75 14C21.336 14 21 14.336 21 14.75V17H18.75C18.336 17 18 17.336 18 17.75C18 18.164 18.336 18.5 18.75 18.5H21.75C22.164 18.5 22.5 18.164 22.5 17.75V14.75C22.5 14.336 22.164 14 21.75 14Z" fill="#34495E"/>
<path d="M21.75 0.5H18.75C18.336 0.5 18 0.836 18 1.25C18 1.664 18.336 2 18.75 2H21V4.25C21 4.664 21.336 5 21.75 5C22.164 5 22.5 4.664 22.5 4.25V1.25C22.5 0.836 22.164 0.5 21.75 0.5Z" fill="#34495E"/>
<path d="M3.75 17H1.5V14.75C1.5 14.336 1.164 14 0.75 14C0.336 14 0 14.336 0 14.75V17.75C0 18.164 0.336 18.5 0.75 18.5H3.75C4.164 18.5 4.5 18.164 4.5 17.75C4.5 17.336 4.164 17 3.75 17Z" fill="#34495E"/>
<path d="M4.5 3.5H3V15.5H4.5V3.5Z" fill="#34495E"/>
<path d="M7.5 3.5H6V12.5H7.5V3.5Z" fill="#34495E"/>
<path d="M10.5 3.5H9V12.5H10.5V3.5Z" fill="#34495E"/>
<path d="M13.5 3.5H12V15.5H13.5V3.5Z" fill="#34495E"/>
<path d="M16.5 3.5H15V12.5H16.5V3.5Z" fill="#34495E"/>
<path d="M19.5 3.5H18V15.5H19.5V3.5Z" fill="#34495E"/>
<path d="M7.5 14H6V15.5H7.5V14Z" fill="#34495E"/>
<path d="M10.5 14H9V15.5H10.5V14Z" fill="#34495E"/>
<path d="M16.5 14H15V15.5H16.5V14Z" fill="#34495E"/>
</svg>
