<svg width="18" height="18" viewBox="0 0 18 18" fill="none" xmlns="http://www.w3.org/2000/svg">
<path d="M5.0625 8.75391H3.9375C3.64627 8.75391 3.41016 8.99002 3.41016 9.28125C3.41016 9.57248 3.64627 9.80859 3.9375 9.80859H5.0625C5.35373 9.80859 5.58984 9.57248 5.58984 9.28125C5.58984 8.99002 5.35373 8.75391 5.0625 8.75391Z" fill="#666666"/>
<path d="M5.0625 11.0039H3.9375C3.64627 11.0039 3.41016 11.24 3.41016 11.5312C3.41016 11.8225 3.64627 12.0586 3.9375 12.0586H5.0625C5.35373 12.0586 5.58984 11.8225 5.58984 11.5312C5.58984 11.24 5.35373 11.0039 5.0625 11.0039Z" fill="#666666"/>
<path d="M5.0625 13.2539H3.9375C3.64627 13.2539 3.41016 13.49 3.41016 13.7812C3.41016 14.0725 3.64627 14.3086 3.9375 14.3086H5.0625C5.35373 14.3086 5.58984 14.0725 5.58984 13.7812C5.58984 13.49 5.35373 13.2539 5.0625 13.2539Z" fill="#666666"/>
<path d="M9.5625 8.75391H8.4375C8.14627 8.75391 7.91016 8.99002 7.91016 9.28125C7.91016 9.57248 8.14627 9.80859 8.4375 9.80859H9.5625C9.85373 9.80859 10.0898 9.57248 10.0898 9.28125C10.0898 8.99002 9.85373 8.75391 9.5625 8.75391Z" fill="#666666"/>
<path d="M9.5625 11.0039H8.4375C8.14627 11.0039 7.91016 11.24 7.91016 11.5312C7.91016 11.8225 8.14627 12.0586 8.4375 12.0586H9.5625C9.85373 12.0586 10.0898 11.8225 10.0898 11.5312C10.0898 11.24 9.85373 11.0039 9.5625 11.0039Z" fill="#666666"/>
<path d="M9.5625 13.2539H8.4375C8.14627 13.2539 7.91016 13.49 7.91016 13.7812C7.91016 14.0725 8.14627 14.3086 8.4375 14.3086H9.5625C9.85373 14.3086 10.0898 14.0725 10.0898 13.7812C10.0898 13.49 9.85373 13.2539 9.5625 13.2539Z" fill="#666666"/>
<path d="M14.0625 8.75391H12.9375C12.6463 8.75391 12.4102 8.99002 12.4102 9.28125C12.4102 9.57248 12.6463 9.80859 12.9375 9.80859H14.0625C14.3537 9.80859 14.5898 9.57248 14.5898 9.28125C14.5898 8.99002 14.3537 8.75391 14.0625 8.75391Z" fill="#666666"/>
<path d="M14.0625 11.0039H12.9375C12.6463 11.0039 12.4102 11.24 12.4102 11.5312C12.4102 11.8225 12.6463 12.0586 12.9375 12.0586H14.0625C14.3537 12.0586 14.5898 11.8225 14.5898 11.5312C14.5898 11.24 14.3537 11.0039 14.0625 11.0039Z" fill="#666666"/>
<path d="M14.0625 13.2539H12.9375C12.6463 13.2539 12.4102 13.49 12.4102 13.7812C12.4102 14.0725 12.6463 14.3086 12.9375 14.3086H14.0625C14.3537 14.3086 14.5898 14.0725 14.5898 13.7812C14.5898 13.49 14.3537 13.2539 14.0625 13.2539Z" fill="#666666"/>
<path d="M16.418 2.28516H15.1523V1.40625C15.1523 1.11502 14.9162 0.878906 14.625 0.878906C14.3338 0.878906 14.0977 1.11502 14.0977 1.40625V2.28516H9.52734V1.40625C9.52734 1.11502 9.29123 0.878906 9 0.878906C8.70877 0.878906 8.47266 1.11502 8.47266 1.40625V2.28516H3.90234V1.40625C3.90234 1.11502 3.66623 0.878906 3.375 0.878906C3.08377 0.878906 2.84766 1.11502 2.84766 1.40625V2.28516H1.58203C0.709699 2.28516 0 2.99486 0 3.86719V15.5391C0 16.4114 0.709699 17.1211 1.58203 17.1211H16.418C17.2903 17.1211 18 16.4114 18 15.5391C18 15.1987 18 4.16338 18 3.86719C18 2.99486 17.2903 2.28516 16.418 2.28516ZM1.05469 3.86719C1.05469 3.57641 1.29125 3.33984 1.58203 3.33984H2.84766V4.21875C2.84766 4.50998 3.08377 4.74609 3.375 4.74609C3.66623 4.74609 3.90234 4.50998 3.90234 4.21875V3.33984H8.47266V4.21875C8.47266 4.50998 8.70877 4.74609 9 4.74609C9.29123 4.74609 9.52734 4.50998 9.52734 4.21875V3.33984H14.0977V4.21875C14.0977 4.50998 14.3338 4.74609 14.625 4.74609C14.9162 4.74609 15.1523 4.50998 15.1523 4.21875V3.33984H16.418C16.7087 3.33984 16.9453 3.57641 16.9453 3.86719V5.94141H1.05469V3.86719ZM16.418 16.0664H1.58203C1.29125 16.0664 1.05469 15.8298 1.05469 15.5391V6.99609H16.9453V15.5391C16.9453 15.8298 16.7087 16.0664 16.418 16.0664Z" fill="#666666"/>
</svg>
