<svg width="36" height="36" viewBox="0 0 36 36" fill="none" xmlns="http://www.w3.org/2000/svg">
<path d="M18 35.5C8.33495 35.5 0.5 27.6675 0.5 18C0.5 8.33752 8.33505 0.5 18 0.5C27.665 0.5 35.5 8.33752 35.5 18C35.5 27.6675 27.665 35.5 18 35.5Z" fill="white" stroke="#34495E"/>
<path fill-rule="evenodd" clip-rule="evenodd" d="M18 32.9768C26.2843 32.9768 33 26.2611 33 17.9768C33 9.69254 26.2843 2.97681 18 2.97681C9.71573 2.97681 3 9.69254 3 17.9768C3 26.2611 9.71573 32.9768 18 32.9768ZM25.5625 21.0226C25.5376 21.0139 25.5168 20.9936 25.4681 20.9461C25.383 20.8631 25.383 20.7801 25.383 20.6971L25.7234 19.5353H23.1702L22.9149 22.9378L25.2128 22.8548L25.383 21.9419C25.383 21.7759 25.4681 21.6929 25.6383 21.6929H25.7234C25.7598 21.6929 25.7806 21.6929 25.7992 21.6994C25.8241 21.7081 25.8449 21.7284 25.8936 21.7759C25.9787 21.8589 25.9787 21.9419 25.9787 22.0249L25.8085 23.1867C25.8085 23.3527 25.7234 23.4357 25.5532 23.4357L13.6383 23.7676H13.5532C12.9574 23.7676 12.5319 24.1826 12.5319 24.7635C12.5319 25.2614 12.9574 25.6763 13.5532 25.6763H25.6383C25.8085 25.6763 25.9787 25.8423 25.9787 26.0083C25.9787 26.1743 25.8085 26.3402 25.6383 26.3402H24.4468C24.617 26.5062 24.7021 26.7552 24.7021 27.0041C24.7021 27.5851 24.1915 28.083 23.5957 28.083C23 28.083 22.4894 27.5851 22.4894 27.0041C22.4894 26.7552 22.5745 26.5062 22.7447 26.3402H15.8511C16.0213 26.5062 16.1064 26.7552 16.1064 27.0041C16.1064 27.5851 15.5957 28.083 15 28.083C14.4043 28.083 13.8936 27.5851 13.8936 27.0041C13.8936 26.7552 13.9787 26.5062 14.1489 26.3402C13.6383 26.3402 13.383 26.2573 13.383 26.2573C12.5319 26.1743 11.8511 25.5104 11.8511 24.7635C11.8511 24.2656 12.1915 23.7676 12.7021 23.5187L9.38298 11.4855H7.34043C7.17021 11.4855 7 11.3195 7 11.1535C7 10.9876 7.17021 10.8216 7.34043 10.8216H9.7234L10.9149 14.888H12.0213V11.6515C12.0213 11.5685 12.1064 11.4855 12.1915 11.4025H12.2766H13.1277C13.383 11.4025 13.5532 11.5685 13.5532 11.7344C13.5532 11.9004 13.383 12.0664 13.2128 12.0664H12.617V14.971H14.6596H17.7234V12.0664H16.7021H14.4894C14.3191 12.0664 14.1489 11.9004 14.1489 11.7344C14.1489 11.5685 14.3191 11.4025 14.4894 11.4025H16.3617V8.33195C16.3617 8.16598 16.5319 8 16.7872 8H23.8511C24.0213 8 24.1915 8.16598 24.1915 8.33195V14.971H26.5745C26.6596 14.971 26.7447 14.971 26.8298 15.0539C26.8298 15.0954 26.8511 15.1369 26.8723 15.1784C26.8936 15.2199 26.9149 15.2614 26.9149 15.3029L25.9787 20.7801C25.9787 20.9461 25.8936 21.029 25.7234 21.029H25.6383C25.6019 21.029 25.5811 21.029 25.5625 21.0226ZM15.5957 27.0041C15.5957 26.6722 15.3404 26.4232 15 26.4232C14.6596 26.4232 14.4043 26.6722 14.4043 27.0041C14.4043 27.3361 14.6596 27.5851 15 27.5851C15.4255 27.5851 15.6809 27.3361 15.5957 27.0041ZM24.1915 27.0041C24.1915 26.6722 23.9362 26.4232 23.5957 26.4232C23.2553 26.4232 23 26.6722 23 27.0041C23 27.3361 23.2553 27.5851 23.5957 27.5851C23.9362 27.5851 24.1915 27.3361 24.1915 27.0041ZM14.5745 15.5519H11.0851L12.0213 18.8714H14.9149L14.5745 15.5519ZM12.1064 19.4523L13.1277 23.1037H15.2553L14.9149 19.4523H12.1064ZM18.7447 15.5519H15.2553L15.5957 18.8714H18.7447V15.5519ZM18.7447 22.9378H18.8298H18.9149V19.4523H15.766L16.1064 23.0207L18.7447 22.9378ZM19.4255 22.9378L22.0638 22.8548L22.3191 19.4523H19.4255V22.9378ZM19.3404 18.7884H22.4043L22.6596 15.4689H19.3404V18.7884ZM18.4043 14.971H19H23.5106V8.6639H17.0426V11.4025H18.0638H18.234C18.3191 11.4855 18.4043 11.5685 18.4043 11.6515V11.7344V14.971ZM23.0851 18.7884H25.6383L26.1489 15.4689H23.3404L23.0851 18.7884Z" fill="#34495E"/>
</svg>
