<svg width="26" height="22" viewBox="0 0 26 22" fill="none" xmlns="http://www.w3.org/2000/svg">
<path d="M25.6436 4.01156L4.99387 2.62428L4.7996 1.45664C4.66247 0.61271 3.94253 0 3.09688 0H0.365684C0.159986 0 0 0.161841 0 0.369933C0 0.578026 0.159986 0.739884 0.365684 0.739884H3.09688C3.58827 0.739884 3.99967 1.09826 4.07966 1.58381L4.31964 3.04047L6.30805 15.1329V15.1445L6.46803 16.104C6.67373 17.3295 7.48509 18.3121 8.55929 18.763C8.18217 19.0983 7.95362 19.5954 7.95362 20.1387C7.95362 21.1676 8.77641 22 9.79347 22C10.8105 22 11.6333 21.1676 11.6333 20.1387C11.6333 19.7225 11.4962 19.3295 11.2676 19.0173H18.7984C18.5699 19.3295 18.4328 19.711 18.4328 20.1387C18.4328 21.1676 19.2555 22 20.2726 22C21.2897 22 22.1124 21.1676 22.1124 20.1387C22.1124 19.1098 21.2897 18.2775 20.2726 18.2775H9.89632C8.55929 18.2775 7.42795 17.3063 7.21083 15.9769L7.11941 15.3988L11.3819 15.0636C11.3933 15.0636 11.4162 15.0636 11.4276 15.0636C11.439 15.0636 11.4505 15.0636 11.4619 15.0636C11.4848 15.0636 11.5076 15.052 11.5305 15.052L24.8208 14.0116C25.0036 14 25.1408 13.8613 25.1522 13.6763L25.6893 7.71098C25.7007 7.6763 25.7121 7.64162 25.7121 7.60694C25.7121 7.58382 25.7121 7.57225 25.7121 7.54913L25.9978 4.40462C26.0093 4.30058 25.975 4.20808 25.9064 4.12716C25.8264 4.06936 25.735 4.02312 25.6436 4.01156ZM9.78204 21.2601C9.17638 21.2601 8.67356 20.763 8.67356 20.1387C8.67356 19.5145 9.16495 19.0173 9.78204 19.0173C10.3877 19.0173 10.8905 19.5145 10.8905 20.1387C10.8905 20.763 10.3991 21.2601 9.78204 21.2601ZM21.3468 20.1387C21.3468 20.7514 20.8554 21.2601 20.2383 21.2601C19.6327 21.2601 19.1298 20.763 19.1298 20.1387C19.1298 19.5145 19.6212 19.0173 20.2383 19.0173C20.8554 19.0289 21.3468 19.526 21.3468 20.1387ZM16.3072 13.9422L16.2386 11.2832L20.1926 11.133L20.044 13.6416L16.3072 13.9422ZM11.7362 14.3006L11.4733 11.4682L15.5073 11.3179L15.5758 14L11.7362 14.3006ZM5.80523 7.54913L10.3877 7.65317L10.6734 10.763L6.35375 10.9249L5.80523 7.54913ZM11.1191 7.66475L15.4159 7.75722L15.4844 10.578L11.3933 10.7399L11.1191 7.66475ZM15.4044 7.01733L11.0505 6.92484L10.7534 3.75723L15.3244 4.06937L15.4044 7.01733ZM16.0558 4.10405L20.5811 4.40462L20.4212 7.12139L16.1244 7.0289L16.0558 4.10405ZM16.2272 10.5433L16.1587 7.76879L20.3869 7.86128L20.2383 10.3931L16.2272 10.5433ZM21.1182 7.88438L24.9236 7.96532L24.7179 10.2196L20.9697 10.3584L21.1182 7.88438ZM24.9922 7.22543L21.164 7.1445L21.3239 4.46243L25.2208 4.72832L24.9922 7.22543ZM10.022 3.69942L10.3191 6.90174L5.67952 6.79769L5.11957 3.36417L10.022 3.69942ZM6.47946 11.6647L10.742 11.5029L11.0048 14.3584L6.97085 14.6705L6.47946 11.6647ZM20.7868 13.5954L20.9354 11.1098L24.6608 10.9711L24.4437 13.3179L20.7868 13.5954Z" fill="#34495E"/>
</svg>
