<svg width="26" height="26" viewBox="0 0 26 26" fill="none" xmlns="http://www.w3.org/2000/svg">
<path d="M25.6436 7.01156L4.99387 5.62428L4.7996 4.45664C4.66247 3.61271 3.94253 3 3.09688 3H0.365684C0.159986 3 0 3.16184 0 3.36993C0 3.57803 0.159986 3.73988 0.365684 3.73988H3.09688C3.58827 3.73988 3.99967 4.09826 4.07966 4.58381L4.31964 6.04047L6.30805 18.1329V18.1445L6.46803 19.104C6.67373 20.3295 7.48509 21.3121 8.55929 21.763C8.18217 22.0983 7.95362 22.5954 7.95362 23.1387C7.95362 24.1676 8.77641 25 9.79347 25C10.8105 25 11.6333 24.1676 11.6333 23.1387C11.6333 22.7225 11.4962 22.3295 11.2676 22.0173H18.7984C18.5699 22.3295 18.4328 22.711 18.4328 23.1387C18.4328 24.1676 19.2555 25 20.2726 25C21.2897 25 22.1124 24.1676 22.1124 23.1387C22.1124 22.1098 21.2897 21.2775 20.2726 21.2775H9.89632C8.55929 21.2775 7.42795 20.3063 7.21083 18.9769L7.11941 18.3988L11.3819 18.0636C11.3933 18.0636 11.4162 18.0636 11.4276 18.0636C11.439 18.0636 11.4505 18.0636 11.4619 18.0636C11.4848 18.0636 11.5076 18.052 11.5305 18.052L24.8208 17.0116C25.0036 17 25.1408 16.8613 25.1522 16.6763L25.6893 10.711C25.7007 10.6763 25.7121 10.6416 25.7121 10.6069C25.7121 10.5838 25.7121 10.5723 25.7121 10.5491L25.9978 7.40462C26.0093 7.30058 25.975 7.20808 25.9064 7.12716C25.8264 7.06936 25.735 7.02312 25.6436 7.01156ZM9.78204 24.2601C9.17638 24.2601 8.67356 23.763 8.67356 23.1387C8.67356 22.5145 9.16495 22.0173 9.78204 22.0173C10.3877 22.0173 10.8905 22.5145 10.8905 23.1387C10.8905 23.763 10.3991 24.2601 9.78204 24.2601ZM21.3468 23.1387C21.3468 23.7514 20.8554 24.2601 20.2383 24.2601C19.6327 24.2601 19.1298 23.763 19.1298 23.1387C19.1298 22.5145 19.6212 22.0173 20.2383 22.0173C20.8554 22.0289 21.3468 22.526 21.3468 23.1387ZM16.3072 16.9422L16.2386 14.2832L20.1926 14.133L20.044 16.6416L16.3072 16.9422ZM11.7362 17.3006L11.4733 14.4682L15.5073 14.3179L15.5758 17L11.7362 17.3006ZM5.80523 10.5491L10.3877 10.6532L10.6734 13.763L6.35375 13.9249L5.80523 10.5491ZM11.1191 10.6647L15.4159 10.7572L15.4844 13.578L11.3933 13.7399L11.1191 10.6647ZM15.4044 10.0173L11.0505 9.92484L10.7534 6.75723L15.3244 7.06937L15.4044 10.0173ZM16.0558 7.10405L20.5811 7.40462L20.4212 10.1214L16.1244 10.0289L16.0558 7.10405ZM16.2272 13.5433L16.1587 10.7688L20.3869 10.8613L20.2383 13.3931L16.2272 13.5433ZM21.1182 10.8844L24.9236 10.9653L24.7179 13.2196L20.9697 13.3584L21.1182 10.8844ZM24.9922 10.2254L21.164 10.1445L21.3239 7.46243L25.2208 7.72832L24.9922 10.2254ZM10.022 6.69942L10.3191 9.90174L5.67952 9.79769L5.11957 6.36417L10.022 6.69942ZM6.47946 14.6647L10.742 14.5029L11.0048 17.3584L6.97085 17.6705L6.47946 14.6647ZM20.7868 16.5954L20.9354 14.1098L24.6608 13.9711L24.4437 16.3179L20.7868 16.5954Z" fill="white"/>
</svg>
