<svg width="9" height="9" viewBox="0 0 9 9" fill="none" xmlns="http://www.w3.org/2000/svg">
<path d="M4.68499 4.25001L8.12517 7.58258C8.28092 7.73345 8.28092 7.97806 8.12517 8.12893C7.96943 8.2798 7.71692 8.2798 7.56118 8.12893L4.12099 4.79636L0.680804 8.12893C0.52506 8.2798 0.272551 8.2798 0.116807 8.12893C-0.0389358 7.97806 -0.0389358 7.73345 0.116807 7.58258L3.55699 4.25001L0.116807 0.917441C-0.0389358 0.76657 -0.0389358 0.521959 0.116807 0.371088C0.272551 0.220217 0.52506 0.220217 0.680804 0.371088L4.12099 3.70366L7.56118 0.371088C7.71692 0.220217 7.96943 0.220217 8.12517 0.371088C8.28092 0.521959 8.28092 0.76657 8.12517 0.917441L4.68499 4.25001Z" fill="white"/>
</svg>
