<svg width="12" height="12" viewBox="0 0 12 12" fill="none" xmlns="http://www.w3.org/2000/svg">
<path d="M5.71435 8.61539C5.80652 8.71795 5.89871 8.82052 6.08305 8.82052C6.26739 8.82052 6.35958 8.71795 6.45175 8.61539L9.4933 5.23078C9.67764 5.02565 9.67764 4.61539 9.4933 4.41026C9.30896 4.20513 8.9403 4.20513 8.75596 4.41026L6.63604 6.76924V0.615387C6.63604 0.307695 6.45172 0 6.08305 0C5.71437 0 5.53006 0.205131 5.53006 0.615387V6.76924L3.41014 4.41026C3.2258 4.20513 2.85714 4.20513 2.6728 4.41026C2.48846 4.61539 2.48846 5.02565 2.6728 5.23078L5.71435 8.61539Z" fill="#34495E"/>
<path d="M11.5211 7.0769C11.2446 7.0769 10.968 7.28203 10.968 7.69229V10.8718H1.10598V7.69229C1.10598 7.3846 0.921664 7.0769 0.552989 7.0769C0.276483 7.0769 0 7.28203 0 7.69229V11.3846C0 11.6923 0.184315 12 0.552989 12H11.4289C11.7054 12 11.9819 11.7949 11.9819 11.3846V7.69229C12.0741 7.3846 11.7976 7.0769 11.5211 7.0769Z" fill="#34495E"/>
</svg>
