<svg width="23" height="23" viewBox="0 0 23 23" fill="none" xmlns="http://www.w3.org/2000/svg">
<g clip-path="url(#clip0)">
<path d="M21.2281 14.4485C20.9117 14.4485 20.6553 14.7049 20.6553 15.0213V20.1073C20.6542 21.0561 19.8856 21.8249 18.9368 21.8258H2.8641C1.91536 21.8249 1.14676 21.0561 1.14564 20.1073V5.18026C1.14676 4.23175 1.91536 3.46292 2.8641 3.4618H7.9501C8.2665 3.4618 8.52292 3.20537 8.52292 2.88898C8.52292 2.57281 8.2665 2.31616 7.9501 2.31616H2.8641C1.28303 2.31795 0.00179006 3.59919 0 5.18026V20.1076C0.00179006 21.6886 1.28303 22.9699 2.8641 22.9717H18.9368C20.5179 22.9699 21.7991 21.6886 21.8009 20.1076V15.0213C21.8009 14.7049 21.5445 14.4485 21.2281 14.4485Z" fill="#34495E"/>
<path d="M21.574 0.842172C20.5674 -0.164513 18.9353 -0.164513 17.9286 0.842172L7.70913 11.0616C7.63909 11.1317 7.58852 11.2185 7.56212 11.3138L6.21823 16.1655C6.16296 16.3645 6.21912 16.5775 6.36501 16.7236C6.51113 16.8695 6.72415 16.9256 6.92307 16.8706L11.7748 15.5265C11.8701 15.5001 11.9569 15.4495 12.027 15.3795L22.2462 5.1598C23.2513 4.15244 23.2513 2.5217 22.2462 1.51434L21.574 0.842172ZM8.95725 11.434L17.3211 3.0699L20.0185 5.7673L11.6544 14.1314L8.95725 11.434ZM8.41844 12.5152L10.5734 14.6704L7.59255 15.4963L8.41844 12.5152ZM21.4362 4.34979L20.8287 4.9573L18.1311 2.25968L18.7388 1.65217C19.298 1.093 20.2046 1.093 20.7638 1.65217L21.4362 2.32434C21.9945 2.88418 21.9945 3.79018 21.4362 4.34979Z" fill="#34495E"/>
</g>
<defs>
<clipPath id="clip0">
<rect width="23" height="23" fill="white"/>
</clipPath>
</defs>
</svg>
