<svg width="19" height="19" viewBox="0 0 19 19" fill="none" xmlns="http://www.w3.org/2000/svg">
<g clip-path="url(#clip0)">
<path d="M17.5363 11.9357C17.2749 11.9357 17.0631 12.1475 17.0631 12.4089V16.6104C17.0621 17.3941 16.4272 18.0292 15.6435 18.03H2.36599C1.58226 18.0292 0.947321 17.3941 0.946397 16.6104V4.27932C0.947321 3.49577 1.58226 2.86065 2.36599 2.85973H6.56748C6.82884 2.85973 7.04067 2.6479 7.04067 2.38653C7.04067 2.12535 6.82884 1.91333 6.56748 1.91333H2.36599C1.05989 1.91481 0.00147875 2.97322 0 4.27932V16.6106C0.00147875 17.9167 1.05989 18.9751 2.36599 18.9766H15.6435C16.9496 18.9751 18.008 17.9167 18.0095 16.6106V12.4089C18.0095 12.1475 17.7976 11.9357 17.5363 11.9357Z" fill="#B3B3B3"/>
<path d="M17.8221 0.695728C16.9905 -0.135881 15.6423 -0.135881 14.8107 0.695728L6.36851 9.13788C6.31065 9.19574 6.26888 9.26746 6.24706 9.3462L5.1369 13.3542C5.09124 13.5185 5.13764 13.6945 5.25815 13.8152C5.37886 13.9357 5.55483 13.9821 5.71915 13.9366L9.72711 12.8262C9.80585 12.8044 9.87757 12.7627 9.93542 12.7048L18.3774 4.26246C19.2077 3.4303 19.2077 2.08316 18.3774 1.251L17.8221 0.695728ZM7.39956 9.44546L14.3088 2.53603L16.5371 4.76431L9.62766 11.6737L7.39956 9.44546ZM6.95446 10.3386L8.73468 12.119L6.2722 12.8013L6.95446 10.3386ZM17.7083 3.59333L17.2064 4.09518L14.9779 1.86671L15.48 1.36486C15.9419 0.902938 16.6909 0.902938 17.1528 1.36486L17.7083 1.92013C18.1694 2.38261 18.1694 3.13104 17.7083 3.59333Z" fill="#B3B3B3"/>
</g>
<defs>
<clipPath id="clip0">
<rect width="19" height="19" fill="white"/>
</clipPath>
</defs>
</svg>
