<svg width="17" height="18" viewBox="0 0 17 18" fill="none" xmlns="http://www.w3.org/2000/svg">
<path d="M16.3352 0.773827C16.3352 0.346426 15.9895 0 15.5619 0H1.72012C1.29271 0 0.946289 0.346777 0.946289 0.773827C0.946289 1.18982 1.27622 1.52765 1.68846 1.5445L6.65924 7.55204L7.31482 17.5173C7.32834 17.7193 7.45799 17.894 7.64609 17.9663C7.70583 17.9888 7.76838 18 7.83016 18C7.96297 18 8.0928 17.9487 8.19186 17.8525L10.4799 15.6085C10.5789 15.5112 10.6351 15.3788 10.6351 15.2399V7.53777L15.5942 1.54479C16.0064 1.52759 16.3352 1.19011 16.3352 0.773827Z" fill="white"/>
</svg>
