<svg width="185" height="32" viewBox="0 0 185 32" fill="none" xmlns="http://www.w3.org/2000/svg">
<g clip-path="url(#clip0)">
<path d="M35.21 18.7C34.6081 21.8 34.1065 24 33.7053 25.2C33.304 26.5 32.6018 27.6 31.5987 28.7C30.5956 29.8 29.3918 30.6 27.9874 31.1C26.583 31.7 24.978 32 23.1724 32C21.467 32 20.0627 31.7 18.8589 31.2C17.6551 30.7 16.7523 29.9 16.1504 28.8C15.5486 27.7 15.2476 26.6 15.3479 25.3C15.4482 24 15.7492 21.8 16.4514 18.7L17.4545 13.5C18.0564 10.4 18.558 8.20001 18.9592 7.00001C19.3605 5.70001 20.0627 4.60001 21.0658 3.50001C22.0689 2.40001 23.2727 1.60001 24.6771 1.10001C26.0815 0.500012 27.6865 0.200012 29.4921 0.200012C31.1974 0.200012 32.6018 0.500012 33.8056 1.00001C35.0093 1.50001 35.9122 2.30001 36.514 3.40001C37.1159 4.50001 37.4169 5.60001 37.3165 6.90001C37.2162 8.20001 36.9153 10.4 36.2131 13.5L35.21 18.7ZM29.0909 8.60001C29.3918 7.20001 29.4921 6.30001 29.3918 5.90001C29.2915 5.50001 28.9905 5.30001 28.489 5.30001C28.0877 5.30001 27.6865 5.50001 27.3855 5.80001C27.0846 6.10001 26.7836 7.00001 26.4827 8.60001L23.6739 22.9C23.373 24.7 23.1724 25.8 23.2727 26.2C23.373 26.6 23.6739 26.8 24.1755 26.8C24.7774 26.8 25.1786 26.6 25.3793 26.1C25.5799 25.6 25.8808 24.5 26.2821 22.7L29.0909 8.60001Z" fill="#53606F"/>
<path d="M39.7241 0.599976H47.9497C50.1566 0.599976 51.862 0.799976 52.9654 1.09998C54.0689 1.39998 54.8714 1.89998 55.3729 2.59998C55.8745 3.19998 56.0751 3.99998 56.1754 4.89998C56.1754 5.79998 56.0751 7.19998 55.6739 9.09998L55.1723 11.8C54.7711 13.8 54.2695 15.2 53.7679 16.1C53.166 17 52.2632 17.7 51.0595 18.2C49.8557 18.7 48.351 18.9 46.6457 18.9H44.4388L42.0313 31.2H33.9059L39.7241 0.599976ZM46.746 5.79998L45.2413 13.6C45.4419 13.6 45.6425 13.6 45.8432 13.6C46.5454 13.6 47.1472 13.4 47.5485 13.1C47.9498 12.7 48.1504 12 48.4513 10.9L48.9529 8.39998C49.1535 7.39998 49.1535 6.69998 48.8526 6.39998C48.5516 5.99998 47.8494 5.79998 46.746 5.79998Z" fill="#53606F"/>
<path d="M19.0595 0.6L17.7555 7.5H12.9404L8.32601 31.2H0.200627L4.81504 7.4H0L1.30407 0.5H19.0595V0.6Z" fill="#53606F"/>
<path d="M73.4293 28.9L70.4199 19.6L80.4513 12.3H68.0124L64.2005 0L60.3886 12.4H47.9498L57.9811 19.7L54.1692 31.4L64.2005 24.1L72.2256 29.9C72.5265 29.4 72.9278 29.1 73.4293 28.9Z" fill="#F05A28"/>
<path d="M183.573 9.90001H176.251L176.652 7.70001C176.852 6.70001 176.852 6.00001 176.752 5.70001C176.652 5.40001 176.351 5.30001 175.95 5.30001C175.448 5.30001 175.047 5.50001 174.746 5.90001C174.445 6.30001 174.244 6.90001 174.044 7.60001C173.843 8.60001 173.843 9.30001 174.044 9.80001C174.244 10.3 174.846 10.9 175.95 11.6C179.059 13.6 180.965 15.3 181.567 16.6C182.269 17.9 182.269 20 181.667 22.9C181.266 25 180.664 26.6 179.962 27.6C179.26 28.6 178.156 29.4 176.551 30.1C174.946 30.8 173.241 31.1 171.335 31.1C169.229 31.1 167.523 30.7 166.219 29.9C164.915 29.1 164.113 28.1 163.912 26.9C163.711 25.7 163.812 24 164.213 21.8L164.514 20H171.837L171.135 23.6C170.934 24.7 170.834 25.4 171.034 25.7C171.135 26 171.536 26.2 172.037 26.2C172.539 26.2 172.94 26 173.341 25.6C173.642 25.2 173.943 24.6 174.044 23.8C174.345 22.1 174.345 20.9 173.943 20.4C173.542 19.9 172.539 19 170.834 17.7C169.128 16.4 168.025 15.5 167.523 14.9C167.022 14.3 166.62 13.5 166.42 12.5C166.219 11.5 166.219 10.2 166.52 8.60001C166.921 6.30001 167.624 4.70001 168.426 3.60001C169.229 2.60001 170.332 1.70001 171.736 1.10001C173.141 0.500012 174.846 0.200012 176.652 0.200012C178.658 0.200012 180.363 0.500012 181.667 1.20001C182.972 1.80001 183.774 2.70001 184.075 3.60001C184.376 4.50001 184.276 6.20001 183.774 8.60001L183.573 9.90001Z" fill="#53606F"/>
<path d="M89.5798 9.89997H82.2569L82.6582 7.69998C82.8588 6.69998 82.8588 5.99998 82.7585 5.69998C82.6582 5.39998 82.3572 5.29998 81.956 5.29998C81.4544 5.29998 81.0531 5.49998 80.7522 5.89998C80.4513 6.29998 80.2506 6.89998 80.05 7.59998C79.8494 8.59998 79.8494 9.29998 80.05 9.79998C80.2506 10.3 80.8525 10.9 81.956 11.6C85.0657 13.6 86.9716 15.3 87.5735 16.6C88.2757 17.9 88.2757 20 87.6738 22.9C87.2726 25 86.6707 26.6 85.9685 27.6C85.2663 28.6 84.1629 29.4 82.5579 30.1C80.9528 30.8 79.2475 31.1 77.3416 31.1C75.235 31.1 73.5296 30.7 72.2256 29.9C70.9215 29.1 70.119 28.1 69.9184 26.9C69.7177 25.7 69.8181 24 70.2193 21.8L70.6206 19.9H77.9434L77.2412 23.5C77.0406 24.6 76.9403 25.3 77.1409 25.6C77.2412 25.9 77.6425 26.1 78.1441 26.1C78.6456 26.1 79.0469 25.9 79.4481 25.5C79.7491 25.1 80.05 24.5 80.1503 23.7C80.4513 22 80.4513 20.8 80.05 20.3C79.6488 19.8 78.6456 18.9 76.9403 17.6C75.235 16.3 74.1315 15.4 73.63 14.8C73.1284 14.2 72.7271 13.4 72.5265 12.4C72.3259 11.4 72.3259 10.1 72.6268 8.49998C73.0281 6.19998 73.7303 4.59998 74.4325 3.49998C75.235 2.49998 76.3384 1.59998 77.7428 0.999976C79.1472 0.399976 80.8525 0.0999756 82.6582 0.0999756C84.6644 0.0999756 86.3698 0.399976 87.6738 1.09998C88.9779 1.69998 89.7804 2.59998 90.0813 3.49998C90.3823 4.39998 90.282 6.09998 89.7804 8.49998L89.5798 9.89997Z" fill="#53606F"/>
<path d="M92.6895 0.599976H100.915C103.122 0.599976 104.827 0.799976 105.931 1.09998C107.034 1.39998 107.837 1.89998 108.338 2.59998C108.84 3.19998 109.041 3.99998 109.141 4.89998C109.141 5.79998 109.041 7.19998 108.639 9.09998L108.138 11.8C107.737 13.8 107.235 15.2 106.733 16.1C106.131 17 105.229 17.7 104.025 18.2C102.821 18.7 101.316 18.9 99.6111 18.9H97.4042L94.9967 31.2H86.8713L92.6895 0.599976ZM99.8118 5.79998L98.3071 13.6C98.5077 13.6 98.7083 13.6 98.9089 13.6C99.6111 13.6 100.213 13.4 100.614 13.1C101.016 12.7 101.216 12 101.517 10.9L102.019 8.39998C102.219 7.39998 102.219 6.69998 101.918 6.39998C101.517 5.99998 100.815 5.79998 99.8118 5.79998Z" fill="#53606F"/>
<path d="M126.495 18.7C125.893 21.8 125.392 24 124.99 25.2C124.589 26.5 123.887 27.6 122.884 28.7C121.881 29.8 120.677 30.6 119.273 31.1C117.868 31.7 116.263 32 114.457 32C112.752 32 111.348 31.7 110.144 31.2C108.94 30.7 108.037 29.9 107.436 28.8C106.834 27.7 106.533 26.6 106.633 25.3C106.733 24 107.034 21.8 107.736 18.7L108.74 13.5C109.341 10.4 109.843 8.20001 110.244 7.00001C110.646 5.70001 111.348 4.60001 112.351 3.50001C113.354 2.40001 114.558 1.60001 115.962 1.10001C117.367 0.500012 118.972 0.200012 120.777 0.200012C122.483 0.200012 123.887 0.500012 125.091 1.00001C126.294 1.50001 127.197 2.30001 127.799 3.40001C128.401 4.50001 128.702 5.60001 128.602 6.90001C128.501 8.20001 128.2 10.4 127.498 13.5L126.495 18.7ZM120.276 8.60001C120.577 7.20001 120.677 6.30001 120.577 5.90001C120.476 5.50001 120.175 5.30001 119.674 5.30001C119.273 5.30001 118.871 5.50001 118.57 5.80001C118.269 6.10001 117.968 7.10001 117.667 8.60001L114.859 22.9C114.558 24.7 114.357 25.8 114.457 26.2C114.558 26.6 114.859 26.8 115.36 26.8C115.962 26.8 116.363 26.6 116.564 26.1C116.765 25.6 117.066 24.5 117.467 22.7L120.276 8.60001Z" fill="#53606F"/>
<path d="M131.11 0.599976H136.827C140.639 0.599976 143.247 0.699976 144.552 0.999976C145.856 1.29998 146.859 1.99998 147.461 3.19998C148.062 4.39998 148.163 6.29997 147.661 8.89997C147.16 11.3 146.558 12.9 145.856 13.7C145.053 14.5 143.849 15 142.044 15.2C143.548 15.6 144.552 16.1 144.953 16.8C145.354 17.5 145.655 18.1 145.655 18.6C145.655 19.1 145.454 20.7 144.953 23.1L143.348 31.2H135.824L137.831 21C138.131 19.4 138.232 18.3 138.031 18C137.831 17.6 137.229 17.4 136.025 17.4L133.316 31.2H125.191L131.11 0.599976ZM138.131 5.79998L136.827 12.6C137.73 12.6 138.432 12.5 138.834 12.2C139.235 12 139.636 11.2 139.837 9.79998L140.138 8.09998C140.338 7.09998 140.238 6.49998 139.937 6.19998C139.736 5.99998 139.135 5.79998 138.131 5.79998Z" fill="#53606F"/>
<path d="M167.724 0.599976L166.42 7.49998H161.504L156.89 31.2H148.765L153.379 7.49998H148.564L149.868 0.599976H167.724Z" fill="#53606F"/>
</g>
<defs>
<clipPath id="clip0">
<rect width="184.276" height="32" fill="white"/>
</clipPath>
</defs>
</svg>
