<svg width="24" height="24" viewBox="0 0 24 24" fill="none" xmlns="http://www.w3.org/2000/svg">
<g clip-path="url(#clip0)">
<path d="M0.562716 7.67819C0.298277 7.67819 0.0834961 7.46358 0.0834961 7.19914V0.490763C0.0834961 0.226324 0.298277 0.0117188 0.562716 0.0117188H7.27092C7.53554 0.0117188 7.75014 0.226324 7.75014 0.490763C7.75014 0.755379 7.53554 0.969984 7.27092 0.969984H1.04194V7.19914C1.04194 7.46358 0.827156 7.67819 0.562716 7.67819Z" fill="#8596A6"/>
<path d="M22.6038 7.6777C22.3392 7.6777 22.1246 7.46309 22.1246 7.19865V0.969495H15.8954C15.631 0.969495 15.4164 0.75489 15.4164 0.490275C15.4164 0.225835 15.631 0.0112305 15.8954 0.0112305H22.6038C22.8682 0.0112305 23.0828 0.225835 23.0828 0.490275V7.19865C23.0828 7.46309 22.8682 7.6777 22.6038 7.6777Z" fill="#8596A6"/>
<path d="M7.27068 23.0109H0.562472C0.298032 23.0109 0.083252 22.7961 0.083252 22.5317V15.8235C0.083252 15.5588 0.298032 15.3442 0.562472 15.3442C0.826912 15.3442 1.04169 15.5588 1.04169 15.8235V22.0524H7.27068C7.53529 22.0524 7.7499 22.2672 7.7499 22.5317C7.7499 22.7961 7.53529 23.0109 7.27068 23.0109Z" fill="#8596A6"/>
<path d="M22.6038 23.0109H15.8954C15.631 23.0109 15.4164 22.7961 15.4164 22.5317C15.4164 22.2672 15.631 22.0524 15.8954 22.0524H22.1246V15.8235C22.1246 15.5588 22.3392 15.3442 22.6038 15.3442C22.8682 15.3442 23.0828 15.5588 23.0828 15.8235V22.5317C23.0828 22.7961 22.8682 23.0109 22.6038 23.0109Z" fill="#8596A6"/>
<path d="M8.22913 8.63593C8.10647 8.63593 7.98381 8.5889 7.88976 8.4959L0.22329 0.829429C0.0364099 0.642549 0.0364099 0.338627 0.22329 0.151747C0.41017 -0.0349574 0.713916 -0.0349574 0.900796 0.151747L8.56744 7.8184C8.75432 8.00528 8.75432 8.30902 8.56744 8.4959C8.47444 8.5889 8.35178 8.63593 8.22913 8.63593Z" fill="#8596A6"/>
<path d="M14.9372 8.63593C14.8146 8.63593 14.6919 8.5889 14.598 8.4959C14.4112 8.30902 14.4112 8.00527 14.598 7.81839L22.2645 0.151747C22.4514 -0.0349574 22.7553 -0.0349574 22.9422 0.151747C23.1291 0.338627 23.1291 0.642549 22.9422 0.829429L15.2756 8.4959C15.1826 8.5889 15.0599 8.63593 14.9372 8.63593Z" fill="#8596A6"/>
<path d="M22.6039 23.0109C22.4812 23.0109 22.3586 22.9639 22.2645 22.8709L14.598 15.2044C14.4112 15.0175 14.4112 14.7136 14.598 14.5267C14.7849 14.34 15.0887 14.34 15.2756 14.5267L22.9422 22.1934C23.1291 22.3803 23.1291 22.684 22.9422 22.8709C22.8492 22.9639 22.7265 23.0109 22.6039 23.0109Z" fill="#8596A6"/>
<path d="M0.56236 23.0109C0.439703 23.0109 0.317047 22.9639 0.223168 22.8709C0.0362878 22.684 0.0362878 22.3803 0.223168 22.1934L7.88964 14.5267C8.07652 14.34 8.38044 14.34 8.56732 14.5267C8.7542 14.7136 8.7542 15.0175 8.56732 15.2044L0.900674 22.8709C0.807673 22.9639 0.685016 23.0109 0.56236 23.0109Z" fill="#8596A6"/>
</g>
<defs>
<clipPath id="clip0">
<rect x="0.0830078" y="0.0107422" width="23" height="23" fill="white"/>
</clipPath>
</defs>
</svg>
