<svg width="30" height="29" viewBox="0 0 30 29" fill="none" xmlns="http://www.w3.org/2000/svg">
<g clip-path="url(#clip0)">
<path d="M15 0C7 0 0.5 6.5 0.5 14.5C0.5 22.5 7 29 15 29C23 29 29.5 22.5 29.5 14.5C29.5 6.5 23 0 15 0ZM15 28.3C7.4 28.3 1.2 22.1 1.2 14.5C1.2 6.9 7.4 0.7 15 0.7C22.6 0.7 28.8 6.9 28.8 14.5C28.8 22.1 22.6 28.3 15 28.3Z" fill="#8596A6"/>
<path d="M14.9999 3.00012C8.59995 3.00012 3.49995 8.10012 3.49995 14.5001C3.49995 20.9001 8.59995 26.0001 14.9999 26.0001C21.3999 26.0001 26.4999 20.9001 26.4999 14.5001C26.4999 8.10012 21.3999 3.00012 14.9999 3.00012ZM21.6999 14.5001C21.6999 14.6001 21.6999 14.8001 21.5999 14.9001C21.4999 15.0001 21.3999 15.1001 21.1999 15.1001L11.4999 16.2001C11.4999 16.2001 11.4999 16.3001 11.4999 16.4001C11.4999 16.5001 11.4999 16.6001 11.5999 16.6001C11.5999 16.7001 11.5999 16.7001 11.5999 16.8001C11.5999 16.9001 11.4999 17.1001 11.3999 17.4001H19.8999C20.0999 17.4001 20.1999 17.5001 20.2999 17.6001C20.3999 17.7001 20.4999 17.9001 20.4999 18.0001C20.4999 18.2001 20.3999 18.3001 20.2999 18.4001C20.1999 18.5001 19.9999 18.6001 19.8999 18.6001H19.2999C19.5999 18.6001 19.8999 18.7001 20.0999 18.9001C20.2999 19.1001 20.3999 19.4001 20.3999 19.7001C20.3999 20.0001 20.2999 20.3001 20.0999 20.5001C19.8999 20.7001 19.5999 20.8001 19.2999 20.8001C18.9999 20.8001 18.6999 20.7001 18.4999 20.5001C18.2999 20.3001 18.1999 20.0001 18.1999 19.7001C18.1999 19.4001 18.2999 19.1001 18.4999 18.9001C18.6999 18.7001 18.9999 18.6001 19.2999 18.6001H10.9999C11.2999 18.6001 11.5999 18.7001 11.7999 18.9001C11.9999 19.1001 12.0999 19.4001 12.0999 19.7001C12.0999 20.0001 11.9999 20.3001 11.7999 20.5001C11.5999 20.7001 11.2999 20.8001 10.9999 20.8001C10.6999 20.8001 10.3999 20.7001 10.1999 20.5001C9.99995 20.3001 9.89995 20.0001 9.89995 19.7001C9.89995 19.4001 9.99995 19.1001 10.1999 18.9001C10.3999 18.7001 10.6999 18.6001 10.9999 18.6001H10.4999C10.2999 18.6001 10.1999 18.5001 10.0999 18.4001C9.99995 18.3001 9.89995 18.1001 9.89995 18.0001C9.89995 17.9001 9.89995 17.8001 9.99995 17.6001C10.0999 17.4001 10.1999 17.3001 10.2999 17.1001C10.3999 16.9001 10.4999 16.8001 10.4999 16.7001L8.79995 9.20012H6.89995C6.69995 9.20012 6.59995 9.10012 6.49995 9.00012C6.39995 8.90012 6.29995 8.80012 6.29995 8.60012C6.29995 8.40012 6.39995 8.30012 6.49995 8.20012C6.59995 8.10012 6.69995 8.00012 6.89995 8.00012H9.29995C9.39995 8.00012 9.49995 8.00012 9.49995 8.10012C9.59995 8.10012 9.59995 8.20012 9.69995 8.20012C9.69995 8.30012 9.79995 8.30012 9.79995 8.40012C9.79995 8.50012 9.89995 8.60012 9.89995 8.60012C9.89995 8.70012 9.89995 8.80012 9.99995 8.90012C9.99995 9.00012 9.99995 9.10012 9.99995 9.10012H21.0999C21.2999 9.10012 21.3999 9.20012 21.4999 9.30012C21.5999 9.40012 21.6999 9.60012 21.6999 9.70012V14.5001Z" fill="#8596A6"/>
</g>
<defs>
<clipPath id="clip0">
<rect width="29" height="29" fill="white" transform="translate(0.5)"/>
</clipPath>
</defs>
</svg>
