<svg width="36" height="36" viewBox="0 0 36 36" fill="none" xmlns="http://www.w3.org/2000/svg">
<path d="M18 0.473633C8.05714 0.473633 0 8.42476 0 18.2368C0 28.0488 8.05714 36 18 36C27.9429 36 36 28.0488 36 18.2368C36 8.42476 27.9429 0.473633 18 0.473633ZM18 35.1541C8.57143 35.1541 0.857143 27.5413 0.857143 18.2368C0.857143 8.93228 8.57143 1.3195 18 1.3195C27.4286 1.3195 35.1429 8.93228 35.1429 18.2368C35.1429 27.6259 27.4286 35.1541 18 35.1541Z" fill="#34495E"/>
<g clip-path="url(#clip0)">
<path d="M17.9648 3.01128C9.59146 2.9267 2.65598 9.69361 2.5714 18.0677C2.48682 26.4417 9.25314 33.3778 17.6265 33.4624C25.9998 33.547 32.9353 26.7801 33.0198 18.406C33.1044 10.032 26.3381 3.09587 17.9648 3.01128ZM17.711 28.0489C16.4424 28.0489 15.4274 26.9493 15.4274 25.6805L20.0793 25.765C19.9947 27.0338 18.9797 28.1335 17.711 28.0489ZM25.5769 23.5658C25.5769 24.4117 24.9003 24.4962 24.0545 24.4962L11.5368 24.3271C10.691 24.3271 10.0144 24.2425 10.0144 23.3966V23.2274C10.0144 22.6353 10.3527 22.1278 10.9447 21.8741L11.4522 17.6447C11.4522 14.515 13.7358 11.9774 16.6115 11.3853V9.7782C16.6115 9.01692 17.2036 8.42482 17.9648 8.5094C18.726 8.5094 19.318 9.10151 19.2335 9.86279V11.4699C22.1091 12.1466 24.3082 14.6842 24.3082 17.8139L24.7311 22.0432C25.2386 22.297 25.5769 22.8045 25.5769 23.4812V23.5658Z" fill="#34495E"/>
</g>
<defs>
<clipPath id="clip0">
<rect width="35.5274" height="36" fill="white"/>
</clipPath>
</defs>
</svg>
