<svg width="24" height="24" viewBox="0 0 24 24" fill="none" xmlns="http://www.w3.org/2000/svg">
<path d="M12.1333 0.000618228C5.53367 -0.066045 0.0672815 5.26701 0.000618228 11.8667C-0.066045 18.4663 5.26701 23.9327 11.8667 23.9994C18.4663 24.066 23.9327 18.733 23.9994 12.1333C24.066 5.53367 18.733 0.0672815 12.1333 0.000618228ZM11.9333 19.7329C10.9334 19.7329 10.1334 18.8663 10.1334 17.8664L13.7999 17.933C13.7332 18.933 12.9333 19.7996 11.9333 19.7329ZM18.133 16.1998C18.133 16.8664 17.5997 16.9331 16.9331 16.9331L7.06692 16.7998C6.40029 16.7998 5.86698 16.7331 5.86698 16.0665V15.9331C5.86698 15.4665 6.13364 15.0665 6.60028 14.8665L7.00026 11.5334C7.00026 9.06682 8.80016 7.06692 11.0667 6.60028V5.33368C11.0667 4.73371 11.5334 4.26707 12.1333 4.33373C12.7333 4.33373 13.1999 4.80037 13.1333 5.40034V6.66694C15.3998 7.20025 17.1331 9.20014 17.1331 11.6667L17.4664 14.9998C17.8664 15.1998 18.133 15.5998 18.133 16.1331V16.1998Z" fill="#34495E"/>
</svg>
