<svg width="36" height="36" viewBox="0 0 36 36" fill="none" xmlns="http://www.w3.org/2000/svg">
<path d="M18 2.82861C9.68571 2.82861 3 9.51433 3 17.8286C3 22.4572 5.14286 26.6572 8.4 29.4C9.42857 25.0286 13.3714 21.8572 18 21.8572C22.6286 21.8572 26.5714 25.0286 27.6 29.4C30.9429 26.6572 33 22.4572 33 17.8286C33 9.51433 26.3143 2.82861 18 2.82861ZM18 20.9143C15 20.9143 12.5143 18.4286 12.5143 15.4286C12.5143 12.4286 15 9.9429 18 9.9429C21 9.9429 23.4857 12.4286 23.4857 15.4286C23.4857 18.4286 21 20.9143 18 20.9143Z" fill="#34495E"/>
<path d="M18 0C8.05714 0 0 8.05714 0 18C0 23.5714 2.57143 28.8 6.94286 32.2286C10.1143 34.7143 13.9714 36 18 36C22.0286 36 25.8857 34.7143 29.0571 32.2286C33.4286 28.8 36 23.5714 36 18C36 8.05714 27.9429 0 18 0ZM28.4571 31.4571C25.4571 33.7714 21.8571 35.0571 18 35.0571C14.1429 35.0571 10.5429 33.8571 7.54286 31.4571C3.34286 28.2 0.942857 23.3143 0.942857 18C0.942857 8.57143 8.57143 0.942857 18 0.942857C27.4286 0.942857 35.0571 8.57143 35.0571 18C35.0571 23.3143 32.6571 28.2 28.4571 31.4571Z" fill="#34495E"/>
</svg>
