<svg width="34" height="34" viewBox="0 0 34 34" fill="none" xmlns="http://www.w3.org/2000/svg">
<path d="M29.75 34H4.25C1.9125 34 0 32.0875 0 29.75V4.25C0 1.9125 1.9125 0 4.25 0H29.75C32.0875 0 34 1.9125 34 4.25V29.75C34 32.0875 32.0875 34 29.75 34Z" fill="#D3D6D9"/>
<g clip-path="url(#clip0)">
<path d="M16.9994 26.6088C17.414 26.6088 17.7501 26.2727 17.7501 25.8581C17.7501 25.4435 17.414 25.1074 16.9994 25.1074C16.5848 25.1074 16.2487 25.4435 16.2487 25.8581C16.2487 26.2727 16.5848 26.6088 16.9994 26.6088Z" fill="#34495E"/>
<path d="M22.892 13.2382C22.8673 10.0099 20.2334 7.39136 16.9994 7.39136C13.7501 7.39136 11.1065 10.0349 11.1065 13.2842C11.1065 13.6988 11.4426 14.0349 11.8572 14.0349C12.2718 14.0349 12.6079 13.6988 12.6079 13.2842C12.6079 10.8627 14.5779 8.89272 16.9994 8.89272C19.4208 8.89272 21.3908 10.8627 21.3908 13.2842C21.3908 13.2976 21.3912 13.3108 21.3919 13.3241C21.3767 15.0717 20.3324 16.6401 18.7225 17.3275C17.2197 17.9691 16.2487 19.4547 16.2487 21.1123V22.8554C16.2487 23.27 16.5848 23.606 16.9994 23.606C17.414 23.606 17.75 23.27 17.75 22.8554V21.1123C17.75 20.057 18.3631 19.1134 19.312 18.7083C21.4882 17.7791 22.894 15.65 22.8934 13.284C22.8934 13.2686 22.8929 13.2534 22.892 13.2382Z" fill="#34495E"/>
</g>
<defs>
<clipPath id="clip0">
<rect width="19.2174" height="19.2174" fill="white" transform="translate(7.3913 7.39136)"/>
</clipPath>
</defs>
</svg>
