<svg width="37" height="36" viewBox="0 0 37 36" fill="none" xmlns="http://www.w3.org/2000/svg">
<path d="M18.3496 35.5C8.68456 35.5 0.849609 27.6675 0.849609 18C0.849609 8.33752 8.68466 0.5 18.3496 0.5C28.0146 0.5 35.8496 8.33752 35.8496 18C35.8496 27.6675 28.0147 35.5 18.3496 35.5Z" fill="white" stroke="#3F9726"/>
<path fill-rule="evenodd" clip-rule="evenodd" d="M18.3496 33C26.6339 33 33.3496 26.2843 33.3496 18C33.3496 9.71573 26.6339 3 18.3496 3C10.0653 3 3.34961 9.71573 3.34961 18C3.34961 26.2843 10.0653 33 18.3496 33ZM25.8133 11.6542C26.1648 11.3027 26.7346 11.3027 27.0861 11.6542C27.4376 12.0057 27.4376 12.5756 27.0861 12.927L15.6671 24.346C15.3159 24.6972 14.7457 24.6974 14.3943 24.346L9.61331 19.565C9.26181 19.2135 9.26181 18.6437 9.61331 18.2922C9.96483 17.9408 10.5346 17.9407 10.8861 18.2922L15.0307 22.4369L25.8133 11.6542Z" fill="#3F9726"/>
</svg>
