<svg width="37" height="37" viewBox="0 0 37 37" fill="none" xmlns="http://www.w3.org/2000/svg">
<path d="M18.1685 35.9058C8.50341 35.9058 0.668457 28.0733 0.668457 18.4058C0.668457 8.74329 8.5035 0.905762 18.1685 0.905762C27.8334 0.905762 35.6685 8.74329 35.6685 18.4058C35.6685 28.0733 27.8335 35.9058 18.1685 35.9058Z" stroke="#C6C6C6"/>
<path fill-rule="evenodd" clip-rule="evenodd" d="M33.1685 18.3826C33.1685 26.6668 26.4527 33.3826 18.1685 33.3826C9.88419 33.3826 3.16846 26.6668 3.16846 18.3826C3.16846 10.0983 9.88419 3.38257 18.1685 3.38257C26.4527 3.38257 33.1685 10.0983 33.1685 18.3826ZM19.0815 26.1038V28.6951C19.0815 29.0653 18.8206 29.3826 18.5163 29.3826H16.7337C16.4293 29.3826 16.1685 29.0653 16.1685 28.6951V26.1038C16.1685 25.7336 16.4293 25.4163 16.7337 25.4163H18.5598C18.8206 25.4163 19.0815 25.7336 19.0815 26.1038ZM19.1685 8.07007C19.1685 7.91141 19.125 7.69988 18.9945 7.59411C18.9076 7.43545 18.7337 7.38257 18.6032 7.38257H16.7337C16.6032 7.38257 16.4293 7.43545 16.3424 7.59411C16.2119 7.69988 16.1685 7.91141 16.1685 8.07007L16.5598 22.3489C16.5598 22.7191 16.8206 23.0364 17.125 23.0364H18.2119C18.5163 23.0364 18.7772 22.7191 18.7772 22.3489L19.1685 8.07007Z" fill="#C6C6C6"/>
</svg>
