<svg width="36" height="36" viewBox="0 0 36 36" fill="none" xmlns="http://www.w3.org/2000/svg">
<path d="M18 35.5C8.33495 35.5 0.5 27.6675 0.5 18C0.5 8.33752 8.33505 0.5 18 0.5C27.665 0.5 35.5 8.33752 35.5 18C35.5 27.6675 27.665 35.5 18 35.5Z" fill="white" stroke="#C6C6C6"/>
<path fill-rule="evenodd" clip-rule="evenodd" d="M33 18C33 26.2843 26.2843 33 18 33C9.71573 33 3 26.2843 3 18C3 9.71573 9.71573 3 18 3C26.2843 3 33 9.71573 33 18ZM25.2628 18.5168C25.6203 18.1073 25.7991 17.6231 25.7991 17.064C25.7991 16.5571 25.6136 16.1184 25.2438 15.7477C24.8734 15.377 24.4347 15.1918 23.9277 15.1918H21.2271C21.253 15.1008 21.279 15.0228 21.305 14.9578C21.3307 14.8929 21.3668 14.8213 21.4122 14.7433C21.4575 14.6652 21.4901 14.6067 21.5096 14.5678C21.6265 14.3469 21.7161 14.1648 21.7779 14.0219C21.8396 13.8787 21.901 13.6838 21.963 13.4368C22.0248 13.1899 22.0555 12.9428 22.0555 12.6958C22.0555 12.5399 22.0537 12.413 22.0506 12.3156C22.0475 12.2181 22.031 12.0718 22.002 11.8768C21.9726 11.6819 21.9335 11.5194 21.8849 11.3894C21.836 11.2594 21.758 11.1131 21.6509 10.9507C21.5436 10.788 21.4137 10.6566 21.2608 10.5558C21.1079 10.455 20.913 10.3705 20.6758 10.3023C20.4383 10.2341 20.1703 10.2 19.8711 10.2C19.7022 10.2 19.556 10.2617 19.4324 10.3852C19.3024 10.5152 19.1918 10.6777 19.1009 10.8726C19.0098 11.0677 18.9464 11.2367 18.9106 11.3797C18.8748 11.5227 18.8342 11.721 18.7889 11.9744C18.7302 12.2476 18.6865 12.4441 18.657 12.5643C18.6278 12.6845 18.5708 12.8421 18.4864 13.0371C18.4018 13.2322 18.3012 13.3881 18.1841 13.5052C17.9697 13.7196 17.6415 14.1096 17.1994 14.6751C16.8808 15.091 16.5526 15.4843 16.2146 15.8548C15.8766 16.2254 15.6296 16.4171 15.4736 16.4301C15.3112 16.4431 15.1715 16.5097 15.0544 16.63C14.9374 16.7502 14.8789 16.8917 14.8789 17.0541V23.3038C14.8789 23.4728 14.9406 23.6174 15.0641 23.7376C15.1876 23.858 15.3338 23.9213 15.5029 23.9279C15.7303 23.9344 16.2438 24.0772 17.0434 24.357C17.5438 24.5257 17.9354 24.6543 18.2181 24.7419C18.5008 24.8296 18.896 24.9239 19.4026 25.0248C19.9096 25.1255 20.3776 25.176 20.8064 25.176H20.9722H21.7133H22.0642C22.9289 25.163 23.5689 24.9094 23.985 24.4155C24.3619 23.967 24.5211 23.3787 24.4628 22.6507C24.7162 22.4102 24.8919 22.1049 24.9892 21.7343C25.0996 21.338 25.0996 20.9577 24.9892 20.5938C25.2882 20.1973 25.4279 19.752 25.4083 19.258C25.4091 19.0498 25.3605 18.8029 25.2628 18.5168ZM10.8237 16.4402H13.6316C13.8006 16.4402 13.9468 16.502 14.0703 16.6255C14.1938 16.749 14.2556 16.8953 14.2556 17.0643V23.3045C14.2556 23.4733 14.1938 23.6196 14.0703 23.7432C13.9468 23.8665 13.8006 23.9283 13.6316 23.9283H10.8237C10.6547 23.9283 10.5085 23.8665 10.3849 23.7432C10.2614 23.6196 10.1996 23.4732 10.1996 23.3045V17.0643C10.1996 16.8953 10.2614 16.749 10.3848 16.6255C10.5083 16.502 10.6546 16.4402 10.8237 16.4402ZM12.0716 22.6802C12.2406 22.6802 12.3868 22.6201 12.5103 22.4999C12.634 22.3796 12.6956 22.2318 12.6956 22.0563C12.6956 21.8873 12.6338 21.741 12.5103 21.6176C12.3868 21.494 12.2406 21.4322 12.0716 21.4322C11.8961 21.4322 11.7482 21.494 11.628 21.6176C11.5077 21.741 11.4476 21.8873 11.4476 22.0563C11.4476 22.2318 11.5078 22.3796 11.628 22.4999C11.7482 22.6201 11.8961 22.6802 12.0716 22.6802Z" fill="#C6C6C6"/>
</svg>
