<svg width="37" height="37" viewBox="0 0 37 37" fill="none" xmlns="http://www.w3.org/2000/svg">
<path d="M18.3037 35.5232C8.63866 35.5232 0.803711 27.6907 0.803711 18.0232C0.803711 8.36072 8.63876 0.523193 18.3037 0.523193C27.9687 0.523193 35.8037 8.36072 35.8037 18.0232C35.8037 27.6907 27.9688 35.5232 18.3037 35.5232Z" fill="white" stroke="#8596A6"/>
<path fill-rule="evenodd" clip-rule="evenodd" d="M33.3037 18.0232C33.3037 26.3075 26.588 33.0232 18.3037 33.0232C10.0194 33.0232 3.30371 26.3075 3.30371 18.0232C3.30371 9.73892 10.0194 3.02319 18.3037 3.02319C26.588 3.02319 33.3037 9.73892 33.3037 18.0232ZM25.5665 18.54C25.924 18.1305 26.1028 17.6463 26.1028 17.0873C26.1028 16.5803 25.9173 16.1416 25.5476 15.7709C25.1771 15.4002 24.7384 15.215 24.2314 15.215H21.5308C21.5568 15.124 21.5828 15.046 21.6087 14.981C21.6345 14.9161 21.6706 14.8445 21.7159 14.7665C21.7613 14.6885 21.7939 14.6299 21.8133 14.591C21.9303 14.3701 22.0198 14.188 22.0816 14.0451C22.1433 13.902 22.2048 13.707 22.2667 13.46C22.3286 13.2132 22.3593 12.9661 22.3593 12.719C22.3593 12.5631 22.3574 12.4363 22.3543 12.3388C22.3513 12.2413 22.3347 12.095 22.3057 11.9C22.2763 11.7051 22.2372 11.5426 22.1886 11.4126C22.1398 11.2826 22.0617 11.1363 21.9546 10.9739C21.8474 10.8112 21.7174 10.6798 21.5645 10.579C21.4117 10.4782 21.2167 10.3937 20.9795 10.3255C20.742 10.2573 20.4741 10.2232 20.1749 10.2232C20.0059 10.2232 19.8598 10.2849 19.7362 10.4085C19.6062 10.5384 19.4955 10.7009 19.4046 10.8958C19.3136 11.0909 19.2501 11.2599 19.2144 11.4029C19.1786 11.5459 19.1379 11.7442 19.0926 11.9976C19.0339 12.2708 18.9902 12.4673 18.9608 12.5875C18.9316 12.7077 18.8746 12.8653 18.7901 13.0603C18.7056 13.2554 18.6049 13.4113 18.4879 13.5284C18.2734 13.7428 17.9452 14.1328 17.5031 14.6983C17.1845 15.1142 16.8563 15.5075 16.5183 15.878C16.1803 16.2486 15.9333 16.4403 15.7774 16.4533C15.615 16.4663 15.4752 16.5329 15.3582 16.6532C15.2412 16.7735 15.1827 16.9149 15.1827 17.0773V23.327C15.1827 23.496 15.2444 23.6406 15.3679 23.7608C15.4913 23.8812 15.6376 23.9446 15.8066 23.9511C16.0341 23.9576 16.5476 24.1004 17.3471 24.3802C17.8476 24.5489 18.2391 24.6775 18.5219 24.7651C18.8046 24.8528 19.1997 24.9471 19.7063 25.048C20.2134 25.1487 20.6813 25.1992 21.1102 25.1992H21.276H22.017H22.368C23.2327 25.1862 23.8726 24.9326 24.2888 24.4387C24.6656 23.9902 24.8248 23.4019 24.7665 22.6739C25.02 22.4334 25.1956 22.1281 25.293 21.7575C25.4033 21.3612 25.4033 20.9809 25.293 20.617C25.5919 20.2205 25.7317 19.7752 25.7121 19.2812C25.7129 19.073 25.6642 18.8261 25.5665 18.54ZM11.1274 16.4635H13.9353C14.1043 16.4635 14.2505 16.5252 14.374 16.6487C14.4975 16.7722 14.5593 16.9185 14.5593 17.0875V23.3277C14.5593 23.4965 14.4975 23.6428 14.374 23.7664C14.2505 23.8897 14.1043 23.9515 13.9353 23.9515H11.1274C10.9584 23.9515 10.8122 23.8897 10.6886 23.7664C10.5651 23.6428 10.5033 23.4965 10.5033 23.3277V17.0875C10.5033 16.9185 10.5651 16.7722 10.6886 16.6487C10.812 16.5252 10.9583 16.4635 11.1274 16.4635ZM12.3753 22.7034C12.5443 22.7034 12.6905 22.6433 12.814 22.5231C12.9377 22.4028 12.9993 22.255 12.9993 22.0795C12.9993 21.9105 12.9375 21.7642 12.814 21.6408C12.6905 21.5173 12.5443 21.4554 12.3753 21.4554C12.1998 21.4554 12.0519 21.5173 11.9317 21.6408C11.8114 21.7642 11.7514 21.9105 11.7514 22.0795C11.7514 22.255 11.8115 22.4029 11.9317 22.5231C12.0519 22.6433 12.1998 22.7034 12.3753 22.7034Z" fill="#8596A6"/>
</svg>
