<svg width="37" height="36" viewBox="0 0 37 36" fill="none" xmlns="http://www.w3.org/2000/svg">
<path d="M18.3496 35.5C8.68456 35.5 0.849609 27.6675 0.849609 18C0.849609 8.33752 8.68466 0.5 18.3496 0.5C28.0146 0.5 35.8496 8.33752 35.8496 18C35.8496 27.6675 28.0147 35.5 18.3496 35.5Z" stroke="#8596A6"/>
<g clip-path="url(#clip0)">
<path d="M18.3496 3C10.0783 3 3.34961 9.72867 3.34961 18C3.34961 26.2713 10.0783 33 18.3496 33C26.6209 33 33.3496 26.2713 33.3496 18C33.3496 9.72867 26.6209 3 18.3496 3ZM25.4834 25.7586C25.2396 26.0024 24.9197 26.1251 24.5997 26.1251C24.2797 26.1251 23.9595 26.0024 23.716 25.7586L17.4659 19.5088C17.2308 19.2751 17.0997 18.9574 17.0997 18.6251V10.5C17.0997 9.80878 17.6595 9.25008 18.3496 9.25008C19.0397 9.25008 19.5995 9.80878 19.5995 10.5V18.1076L25.4834 23.9912C25.9721 24.4801 25.9721 25.27 25.4834 25.7586Z" fill="#8596A6"/>
</g>
<defs>
<clipPath id="clip0">
<rect width="30" height="30" fill="white" transform="translate(3.34961 3)"/>
</clipPath>
</defs>
</svg>
