<svg width="37" height="36" viewBox="0 0 37 36" fill="none" xmlns="http://www.w3.org/2000/svg">
<path d="M18.3496 35.5C8.68456 35.5 0.849609 27.6675 0.849609 18C0.849609 8.33752 8.68466 0.5 18.3496 0.5C28.0146 0.5 35.8496 8.33752 35.8496 18C35.8496 27.6675 28.0147 35.5 18.3496 35.5Z" stroke="#CE0014"/>
<path fill-rule="evenodd" clip-rule="evenodd" d="M3.34961 18C3.34961 9.75 10.0996 3 18.3496 3C26.5996 3 33.3496 9.75 33.3496 18C33.3496 26.25 26.5996 33 18.3496 33C10.0996 33 3.34961 26.25 3.34961 18ZM25.6959 11.7697L19.4658 18L25.6959 24.2302C26.1014 24.6355 26.1014 25.2907 25.6959 25.696C25.4938 25.8981 25.2284 25.9997 24.9631 25.9997C24.6977 25.9997 24.4323 25.8981 24.2302 25.696L17.9999 19.4657L11.7698 25.696C11.5677 25.8981 11.3023 25.9997 11.037 25.9997C10.7716 25.9997 10.506 25.8981 10.3041 25.696C9.89864 25.2907 9.89864 24.6355 10.3041 24.2302L16.5342 18L10.3041 11.7697C9.89864 11.3644 9.89864 10.7092 10.3041 10.3039C10.7093 9.89869 11.3644 9.89869 11.7698 10.3039L17.9999 16.5342L24.2302 10.3039C24.6354 9.89869 25.2907 9.89869 25.6959 10.3039C26.1014 10.7092 26.1014 11.3644 25.6959 11.7697Z" fill="#CE0014"/>
</svg>
