<svg width="36" height="36" viewBox="0 0 36 36" fill="none" xmlns="http://www.w3.org/2000/svg">
<path d="M18 35.5C8.33495 35.5 0.5 27.6675 0.5 18C0.5 8.33752 8.33505 0.5 18 0.5C27.665 0.5 35.5 8.33752 35.5 18C35.5 27.6675 27.665 35.5 18 35.5Z" fill="white" stroke="#C6C6C6"/>
<path d="M18 3C9.72727 3 3 9.72727 3 18C3 26.2727 9.72727 33 18 33C26.2727 33 33 26.2727 33 18C33 9.72727 26.2727 3 18 3ZM15.5454 26.8182L12.1818 23.4545L5.90907 17.1818L9.27272 13.8182L15.5454 20.0909L26.9091 8.72727L30.2727 12.0909L15.5454 26.8182Z" fill="#C6C6C6"/>
</svg>
