<svg width="36" height="36" viewBox="0 0 36 36" fill="none" xmlns="http://www.w3.org/2000/svg">
<path d="M18 35.5C8.33495 35.5 0.5 27.6675 0.5 18C0.5 8.33752 8.33505 0.5 18 0.5C27.665 0.5 35.5 8.33752 35.5 18C35.5 27.6675 27.665 35.5 18 35.5Z" stroke="#8596A6"/>
<path fill-rule="evenodd" clip-rule="evenodd" d="M33.3496 17.9768C33.3496 26.2611 26.6339 32.9768 18.3496 32.9768C10.0653 32.9768 3.34961 26.2611 3.34961 17.9768C3.34961 9.69254 10.0653 2.97681 18.3496 2.97681C26.6339 2.97681 33.3496 9.69254 33.3496 17.9768ZM19.2627 25.698V28.2893C19.2627 28.6595 19.0018 28.9768 18.6974 28.9768H16.9148C16.6105 28.9768 16.3496 28.6595 16.3496 28.2893V25.698C16.3496 25.3278 16.6105 25.0105 16.9148 25.0105H18.7409C19.0018 25.0105 19.2627 25.3278 19.2627 25.698ZM19.3496 7.66431C19.3496 7.50565 19.3061 7.29411 19.1757 7.18834C19.0887 7.02969 18.9148 6.97681 18.7844 6.97681H16.9148C16.7844 6.97681 16.6105 7.02969 16.5235 7.18834C16.3931 7.29411 16.3496 7.50565 16.3496 7.66431L16.7409 21.9432C16.7409 22.3133 17.0018 22.6307 17.3061 22.6307H18.3931C18.6974 22.6307 18.9583 22.3133 18.9583 21.9432L19.3496 7.66431Z" fill="#8596A6"/>
</svg>
