<svg width="34" height="34" viewBox="0 0 34 34" fill="none" xmlns="http://www.w3.org/2000/svg">
<rect width="34" height="34" rx="3" fill="#D3D6D9"/>
<g clip-path="url(#clip0)">
<path d="M27.125 23.125H24.7949C24.416 21.8641 23.2575 20.9375 21.875 20.9375C20.4925 20.9375 19.3349 21.8641 18.9552 23.125H7.87499C7.39199 23.125 7 23.517 7 24C7 24.483 7.39199 24.875 7.87499 24.875H18.9551C19.334 26.1359 20.4925 27.0625 21.875 27.0625C23.2574 27.0625 24.4151 26.1359 24.7948 24.875H27.125C27.6088 24.875 28 24.483 28 24C28 23.517 27.6089 23.125 27.125 23.125ZM21.875 25.3125C21.1514 25.3125 20.5625 24.7237 20.5625 24C20.5625 23.2764 21.1514 22.6875 21.875 22.6875C22.5987 22.6875 23.1875 23.2764 23.1875 24C23.1875 24.7237 22.5986 25.3125 21.875 25.3125Z" fill="#34495E"/>
<path d="M27.125 9.12499H24.7949C24.4151 7.86413 23.2575 6.9375 21.875 6.9375C20.4925 6.9375 19.3349 7.86413 18.9551 9.12499H7.87499C7.39199 9.12499 7 9.51697 7 9.99997C7 10.483 7.39199 10.875 7.87499 10.875H18.9551C19.3349 12.1359 20.4925 13.0625 21.875 13.0625C23.2575 13.0625 24.4152 12.1359 24.7949 10.875H27.125C27.6089 10.875 28 10.483 28 10C28 9.51701 27.6089 9.12499 27.125 9.12499ZM21.875 11.3125C21.1514 11.3125 20.5625 10.7236 20.5625 9.99997C20.5625 9.27633 21.1514 8.68747 21.875 8.68747C22.5987 8.68747 23.1875 9.27633 23.1875 9.99997C23.1875 10.7236 22.5986 11.3125 21.875 11.3125Z" fill="#34495E"/>
<path d="M27.125 16.125H16.0449C15.6651 14.8641 14.5075 13.9375 13.125 13.9375C11.7426 13.9375 10.5849 14.8641 10.2052 16.125H7.87499C7.39199 16.125 7 16.517 7 17C7 17.483 7.39199 17.875 7.87499 17.875H10.2051C10.5849 19.1358 11.7425 20.0625 13.125 20.0625C14.5075 20.0625 15.6651 19.1358 16.0448 17.875H27.125C27.6088 17.875 28 17.483 28 17C28 16.517 27.6089 16.125 27.125 16.125ZM13.125 18.3125C12.4013 18.3125 11.8125 17.7236 11.8125 17C11.8125 16.2763 12.4013 15.6875 13.125 15.6875C13.8486 15.6875 14.4375 16.2763 14.4375 17C14.4375 17.7236 13.8486 18.3125 13.125 18.3125Z" fill="#34495E"/>
</g>
<defs>
<clipPath id="clip0">
<rect width="21" height="21" fill="white" transform="translate(7 6.5)"/>
</clipPath>
</defs>
</svg>
