<svg width="16" height="16" viewBox="0 0 16 16" fill="none" xmlns="http://www.w3.org/2000/svg">
<path d="M15.7666 14.5093L11.825 10.5342C12.8622 9.34161 13.3809 7.95031 13.3809 6.36025C13.3809 2.88199 10.3728 0 6.7423 0C3.11183 0 0 2.88199 0 6.45963C0 10.0373 3.0081 12.9193 6.7423 12.9193C8.09076 12.9193 9.43922 12.5217 10.5802 11.7267L14.5219 15.7019C14.7293 15.9006 14.9368 16 15.1442 16C15.3517 16 15.5592 15.9006 15.7666 15.8012C16.0778 15.4037 16.0778 14.8075 15.7666 14.5093ZM6.7423 1.68944C9.43922 1.68944 11.7212 3.7764 11.7212 6.45963C11.7212 9.14286 9.54295 11.2298 6.7423 11.2298C3.94165 11.2298 1.76337 9.14286 1.76337 6.45963C1.76337 3.7764 3.94165 1.68944 6.7423 1.68944Z" fill="white"/>
</svg>
