<svg width="34" height="34" viewBox="0 0 34 34" fill="none" xmlns="http://www.w3.org/2000/svg">
<rect width="34" height="34" rx="3" fill="#D3D6D9"/>
<path d="M24.14 17.9399C24.18 17.6399 24.2 17.3299 24.2 16.9999C24.2 16.6799 24.18 16.3599 24.13 16.0599L26.16 14.4799C26.2475 14.4078 26.3072 14.3076 26.3291 14.1964C26.351 14.0851 26.3336 13.9698 26.28 13.8699L24.36 10.5499C24.3035 10.4495 24.2132 10.3723 24.1052 10.332C23.9972 10.2917 23.8785 10.291 23.77 10.3299L21.38 11.2899C20.88 10.9099 20.35 10.5899 19.76 10.3499L19.4 7.80991C19.3823 7.69544 19.3241 7.59111 19.236 7.51588C19.148 7.44065 19.0358 7.3995 18.92 7.39991H15.08C14.84 7.39991 14.65 7.56991 14.61 7.80991L14.25 10.3499C13.66 10.5899 13.12 10.9199 12.63 11.2899L10.24 10.3299C10.02 10.2499 9.76999 10.3299 9.64999 10.5499L7.73999 13.8699C7.61999 14.0799 7.65999 14.3399 7.85999 14.4799L9.88999 16.0599C9.83999 16.3599 9.79999 16.6899 9.79999 16.9999C9.79999 17.3099 9.81999 17.6399 9.86999 17.9399L7.83999 19.5199C7.75252 19.592 7.69275 19.6922 7.67087 19.8034C7.64899 19.9147 7.66635 20.03 7.71999 20.1299L9.63999 23.4499C9.75999 23.6699 10.01 23.7399 10.23 23.6699L12.62 22.7099C13.12 23.0899 13.65 23.4099 14.24 23.6499L14.6 26.1899C14.65 26.4299 14.84 26.5999 15.08 26.5999H18.92C19.16 26.5999 19.36 26.4299 19.39 26.1899L19.75 23.6499C20.34 23.4099 20.88 23.0899 21.37 22.7099L23.76 23.6699C23.98 23.7499 24.23 23.6699 24.35 23.4499L26.27 20.1299C26.39 19.9099 26.34 19.6599 26.15 19.5199L24.14 17.9399ZM17 20.5999C15.02 20.5999 13.4 18.9799 13.4 16.9999C13.4 15.0199 15.02 13.3999 17 13.3999C18.98 13.3999 20.6 15.0199 20.6 16.9999C20.6 18.9799 18.98 20.5999 17 20.5999Z" fill="#34495E"/>
</svg>
