<svg width="27" height="45" viewBox="0 0 27 45" fill="none" xmlns="http://www.w3.org/2000/svg">
<path d="M25.7137 20.914C25.7145 20.9147 25.7153 20.9154 25.7161 20.9162C26.2118 21.3651 26.5 21.9287 26.5 22.5332C26.5 23.1388 26.2109 23.7031 25.7137 24.1525L4.44299 43.3764C3.48454 44.2426 2.04168 44.3625 1.25016 43.3432C0.775139 42.8994 0.500002 42.3478 0.500002 41.7571C0.500002 41.1532 0.787539 40.5903 1.28222 40.1415L20.2296 22.2836L1.28221 4.42557C0.787538 3.97684 0.500004 3.41389 0.500004 2.81001C0.500004 2.20447 0.789122 1.64009 1.2863 1.19076C2.24503 0.324286 3.68845 0.204562 4.47982 1.22485L25.7137 20.914Z" fill="white" fill-opacity="0.2" stroke="#C6C6C6"/>
</svg>
