<svg width="15" height="14" viewBox="0 0 15 14" fill="none" xmlns="http://www.w3.org/2000/svg">
<g clip-path="url(#clip0)">
<path d="M12.7656 14H2.15614C1.94473 14 1.75154 13.8838 1.66083 13.7004C1.57 13.5177 1.59706 13.3014 1.73023 13.1438L6.93774 6.99996L1.72956 0.856073C1.59639 0.698547 1.57 0.481549 1.66083 0.299542C1.75154 0.116254 1.94473 0 2.15614 0H12.7656C13.0685 0 13.3143 0.235199 13.3143 0.525V2.27496C13.3143 2.56476 13.0685 2.79996 12.7656 2.79996C12.4626 2.79996 12.2168 2.56476 12.2168 2.27496V1.05H3.3078L8.07038 6.66888C8.23356 6.8614 8.23356 7.13787 8.07038 7.33039L3.3078 12.95H12.2168V11.725C12.2168 11.4352 12.4626 11.2 12.7656 11.2C13.0685 11.2 13.3143 11.4352 13.3143 11.725V13.475C13.3143 13.7648 13.0685 14 12.7656 14Z" fill="#666666"/>
</g>
<defs>
<clipPath id="clip0">
<rect width="14.6337" height="14" fill="white" transform="translate(0.144043)"/>
</clipPath>
</defs>
</svg>
