<svg width="21" height="21" viewBox="0 0 21 21" fill="none" xmlns="http://www.w3.org/2000/svg">
<path d="M14.3587 17.9187C14.6079 17.9187 14.8572 17.6904 14.8572 17.4622V8.10349C14.8572 7.87523 14.6079 7.64697 14.3587 7.64697C14.1095 7.64697 13.8603 7.87523 13.8603 8.10349V17.4622C13.8603 17.6904 13.9849 17.9187 14.3587 17.9187Z" fill="#666666"/>
<path d="M8.00062 17.9187C8.24985 17.9187 8.49895 17.6904 8.49895 17.4622V8.10349C8.49895 7.87523 8.24985 7.64697 8.00062 7.64697C7.7514 7.64697 7.50214 7.87523 7.50214 8.10349V17.4622C7.37753 17.6904 7.62678 17.9187 8.00062 17.9187Z" fill="#666666"/>
<path d="M20.467 4.1087C20.3423 3.19566 19.4695 2.51088 18.4722 2.51088H15.7295V1.94023C15.7295 1.36958 15.4802 0.913043 15.1061 0.570652C14.7321 0.228261 14.1089 0 13.6102 0H8.87265C8.2493 0 7.75069 0.228261 7.37668 0.570652C7.00267 0.913043 6.75333 1.48371 6.75333 1.94023V2.51088H4.0105C3.01314 2.51088 2.14048 3.19566 2.01581 4.1087C1.89114 5.02174 2.51443 5.93479 3.51179 6.16305V18.375C3.51179 19.0598 3.76125 19.7446 4.25993 20.2011C4.75861 20.6576 5.50663 21 6.12998 21H16.3528C17.1009 21 17.7242 20.7717 18.2229 20.2011C18.7216 19.7446 18.9709 19.0598 18.9709 18.375V6.16305C19.9682 5.93479 20.5917 5.13587 20.467 4.1087ZM7.75059 1.94023C7.75059 1.71197 7.87536 1.4837 8.00003 1.25544C8.24937 1.02718 8.49867 1.02718 8.74801 1.02718H13.4854C13.7347 1.02718 13.9842 1.14131 14.2335 1.25544C14.4829 1.4837 14.4828 1.71197 14.4828 1.94023V2.51088H7.62595V1.94023H7.75059ZM17.8488 18.375C17.8488 19.288 17.1009 19.9728 16.2282 19.9728H6.00519C5.1325 19.9728 4.38457 19.288 4.38457 18.375V6.27717H17.8488V18.375ZM18.4722 5.25H3.88586C3.38718 5.25 2.88844 4.90761 2.88844 4.33696C2.88844 3.76631 3.26251 3.42391 3.88586 3.42391H18.4722C18.9709 3.42391 19.4696 3.76631 19.4696 4.33696C19.4696 4.90761 18.9709 5.25 18.4722 5.25Z" fill="#666666"/>
<path d="M11.1167 17.9187C11.3659 17.9187 11.615 17.6904 11.615 17.4622V8.10349C11.615 7.87523 11.3659 7.64697 11.1167 7.64697C10.8675 7.64697 10.6182 7.87523 10.6182 8.10349V17.4622C10.6182 17.6904 10.8675 17.9187 11.1167 17.9187Z" fill="#666666"/>
</svg>
