<svg width="15" height="15" viewBox="0 0 15 15" fill="none" xmlns="http://www.w3.org/2000/svg">
<g clip-path="url(#clip0)">
<path d="M1.48291 1.49287L1.47754 4.69287L4.67754 4.69825L4.68291 1.49825L1.48291 1.49287Z" fill="#34495E"/>
<path d="M10.3218 1.56172L10.3164 4.76172L13.5164 4.76709L13.5218 1.56709L10.3218 1.56172Z" fill="#34495E"/>
<path d="M5.95264 1.47773L5.94727 4.67773L9.14727 4.68311L9.15264 1.48311L5.95264 1.47773Z" fill="#34495E"/>
<path d="M1.49854 5.86299L1.49316 9.06299L4.69316 9.06836L4.69854 5.86837L1.49854 5.86299Z" fill="#34495E"/>
<path d="M10.2378 5.93135L10.2324 9.13135L13.4324 9.13672L13.4378 5.93672L10.2378 5.93135Z" fill="#34495E"/>
<path d="M5.86768 5.94697L5.8623 9.14697L9.0623 9.15235L9.06768 5.95235L5.86768 5.94697Z" fill="#34495E"/>
<path d="M1.51416 10.2321L1.50879 13.4321L4.70879 13.4375L4.71416 10.2375L1.51416 10.2321Z" fill="#34495E"/>
<path d="M10.2534 10.301L10.248 13.501L13.448 13.5064L13.4534 10.3064L10.2534 10.301Z" fill="#34495E"/>
<path d="M5.88428 10.3166L5.87891 13.5166L9.07891 13.522L9.08428 10.322L5.88428 10.3166Z" fill="#34495E"/>
</g>
<defs>
<clipPath id="clip0">
<rect width="15" height="15" fill="white"/>
</clipPath>
</defs>
</svg>
