<svg width="15" height="15" viewBox="0 0 15 15" fill="none" xmlns="http://www.w3.org/2000/svg">
<path d="M0.00528041 1.49271L0 4.80469L3.33367 4.81059L3.33895 1.49861L0.00528041 1.49271Z" fill="#F05A28"/>
<path d="M4.36856 1.49662L4.36328 4.80859L14.9358 4.82731L14.941 1.51534L4.36856 1.49662Z" fill="#F05A28"/>
<path d="M0.0638742 5.83305L0.0585938 9.14502L3.39226 9.15092L3.39754 5.83895L0.0638742 5.83305Z" fill="#F05A28"/>
<path d="M4.42716 5.83549L4.42188 9.14746L14.9944 9.16618L14.9996 5.8542L4.42716 5.83549Z" fill="#F05A28"/>
<path d="M0.0267648 10.1724L0.0214844 13.4844L3.35515 13.4903L3.36043 10.1783L0.0267648 10.1724Z" fill="#F05A28"/>
<path d="M4.39102 10.1753L4.38574 13.4873L14.9582 13.506L14.9635 10.194L4.39102 10.1753Z" fill="#F05A28"/>
</svg>
