<svg width="30" height="30" viewBox="0 0 30 30" fill="none" xmlns="http://www.w3.org/2000/svg">
<path d="M19.4117 15.0915C19.1029 15.0915 18.8525 15.3419 18.8525 15.6506C18.8525 15.9593 19.1029 16.2097 19.4117 16.2097C19.7204 16.2097 19.9708 15.9593 19.9708 15.6506C19.9708 15.3419 19.7204 15.0915 19.4117 15.0915Z" fill="white"/>
<path d="M14.9994 3.10318C8.4293 3.10318 3.10315 8.42933 3.10315 14.9994C3.10315 21.5696 8.4293 26.8957 14.9994 26.8957C21.5695 26.8957 26.8957 21.5696 26.8957 14.9994C26.8968 8.42933 21.5706 3.10318 14.9994 3.10318ZM18.5236 8.6999C19.2668 8.53599 20.0168 9.01426 20.1796 9.76423L20.2414 10.0528C20.2021 10.0494 20.1594 10.046 20.1201 10.046H12.3734L12.6282 9.9899L18.1778 8.77512L18.5236 8.6999ZM15.7797 7.64567C16.441 7.26283 17.2987 7.4885 17.6816 8.15314L17.8522 8.44729L12.3027 9.66207L15.7797 7.64567ZM21.5123 19.3466C21.5123 20.1123 20.8835 20.7387 20.1212 20.7387H9.48016C9.20172 20.7387 8.9435 20.6568 8.72682 20.5131C8.34397 20.2672 8.08799 19.835 8.08799 19.3477V11.7649C8.08799 11.5976 8.11718 11.4404 8.17332 11.2934C8.36643 10.7567 8.88063 10.3727 9.48016 10.3727H20.1212C20.1605 10.3727 20.2032 10.3761 20.2425 10.3795C20.9498 10.4412 21.5123 11.0408 21.5123 11.7649V13.6477H19.6991C18.6449 13.6477 17.7804 14.4471 17.676 15.4721C17.6692 15.5406 17.6659 15.6091 17.6659 15.6809C17.6659 16.8003 18.5764 17.7108 19.6991 17.7108H21.5123V19.3466ZM22.452 16.7767C22.452 17.0226 22.2555 17.219 22.0096 17.219H19.6991C18.8481 17.219 18.1565 16.5319 18.1565 15.6798C18.1565 15.2543 18.3305 14.8681 18.6078 14.5897C18.8862 14.3112 19.2725 14.1383 19.698 14.1383H22.0085C22.2544 14.1383 22.4509 14.3348 22.4509 14.5807V16.7767H22.452Z" fill="white"/>
<path d="M15 29.5C6.99181 29.5 0.5 23.0102 0.5 15C0.5 6.99395 6.9919 0.5 15 0.5C23.0081 0.5 29.5 6.99395 29.5 15C29.5 23.0102 23.0082 29.5 15 29.5Z" stroke="white"/>
</svg>
